<?xml version="1.0" encoding="UTF-8" standalone="no"?>
<!DOCTYPE svg PUBLIC "-//W3C//DTD SVG 1.1//EN" "http://www.w3.org/Graphics/SVG/1.1/DTD/svg11.dtd">
<svg xmlns="http://www.w3.org/2000/svg" xmlns:xl="http://www.w3.org/1999/xlink" xmlns:dc="http://purl.org/dc/elements/1.1/" version="1.1" viewBox="224 528 64 64" width="64" height="64">
  <defs/>
  <g id="Canvas_1" stroke-dasharray="none" fill-opacity="1" stroke-opacity="1" stroke="none" fill="none">
    <title>Canvas 1</title>
    <g id="Canvas_1_Layer_1">
      <title>Layer 1</title>
      <g id="Group_334">
        <g id="Graphic_272">
          <path d="M 232 528 L 280 528 C 284.41828 528 288 531.5817 288 536 L 288 584 C 288 588.4183 284.41828 592 280 592 L 232 592 C 227.58172 592 224 588.4183 224 584 L 224 536 C 224 531.5817 227.58172 528 232 528 Z" fill="white"/>
        </g>
        <g id="Group_160">
          <title>aeon-read</title>
          <g id="Graphic_161">
            <title>path38</title>
            <path d="M 232 528 C 227.58172 528 224 531.5817 224 536 L 224 584 C 224 588.4183 227.58172 592 232 592 L 280 592 C 284.41828 592 288 588.4183 288 584 L 288 536 C 288 531.5817 284.41828 528 280 528 Z M 242.62305 539.9258 C 248.9495 539.9258 251.95312 544.3049 251.95312 550.4707 L 251.95312 572.69336 C 251.95312 573.91206 252.44067 574.5596 253.57227 574.6406 L 253.57227 580.0742 L 251.86914 580.0742 L 251.8711 580.0723 C 249.35673 580.0723 247.4112 578.7742 246.5996 575.8574 C 245.13717 578.6142 242.62422 580.0723 239.62305 580.0723 C 235.08245 580.0723 232 576.5849 232 570.58594 L 232 568.7168 C 232 561.5788 237.5144 558.1722 244.97852 555.41406 L 244.97852 549.4121 C 244.97852 547.4662 244.16698 546.3301 242.30078 546.3301 C 240.35355 546.3301 239.70312 547.4669 239.70312 549.5762 L 239.70312 552.9844 L 233.13477 552.9844 L 233.13477 549.90234 C 233.13477 544.1431 236.29727 539.9258 242.62305 539.9258 Z M 269.01758 539.9414 C 271.91276 539.9414 274.42442 541.5126 276.55664 544.6582 C 278.6875 547.79985 279.83526 552.4646 280 558.6445 L 264.3047 558.6445 C 264.48833 563.6645 265.49952 567.6301 267.33398 570.5469 C 268.74038 572.7885 270.43188 573.90625 272.41016 573.90625 C 273.63224 573.90625 274.74622 573.4515 275.74414 572.5488 C 276.74678 571.6441 277.81597 570.0182 278.95703 567.6719 L 280 568.56445 C 278.44978 572.75055 276.73368 575.7086 274.85938 577.4512 C 272.98374 579.1898 270.81227 580.06445 268.3418 580.06445 C 264.09896 580.06445 260.88793 577.905 258.70508 573.58594 C 256.95096 570.102 256.07422 565.78315 256.07422 560.63086 C 256.07422 554.3152 257.36476 549.288 259.9453 545.5488 C 262.5245 541.8096 265.54986 539.9414 269.01758 539.9414 Z M 268.5586 542.5703 C 267.4952 542.5703 266.63018 543.2574 265.95703 544.6348 C 264.75385 547.03836 264.1504 550.3309 264.1504 554.5137 L 264.1504 555.93164 C 264.1504 555.93164 272.4746 555.9307 272.4746 555.9297 C 272.4746 551.5849 272.29467 548.6015 271.9375 546.9824 C 271.58302 545.3633 271.02573 544.1354 270.26953 543.2988 C 269.84077 542.8127 269.2709 542.5703 268.5586 542.5703 Z M 244.97852 560.9336 C 240.92272 562.3089 238.89258 564.5832 238.89258 567.666 L 238.89258 570.74805 C 238.89258 572.69254 239.7871 574.1543 241.57227 574.1543 C 243.5188 574.1543 244.98047 572.45104 244.98047 570.3418 C 244.98047 570.3418 244.97922 560.9336 244.97852 560.9336 Z" fill="#8ba5af"/>
          </g>
        </g>
      </g>
    </g>
  </g>
</svg>
