<?xml version="1.0" encoding="UTF-8" standalone="no"?>
<!DOCTYPE svg PUBLIC "-//W3C//DTD SVG 1.1//EN" "http://www.w3.org/Graphics/SVG/1.1/DTD/svg11.dtd">
<svg xmlns:xl="http://www.w3.org/1999/xlink" xmlns="http://www.w3.org/2000/svg" version="1.1" xmlns:dc="http://purl.org/dc/elements/1.1/" viewBox="224 448 64 64" width="64" height="64">
  <defs/>
  <g id="Canvas_1" stroke-dasharray="none" stroke="none" stroke-opacity="1" fill-opacity="1" fill="none">
    <title>Canvas 1</title>
    <g id="Canvas_1_Layer_1">
      <title>Layer 1</title>
      <g id="Group_287">
        <g id="Graphic_274">
          <path d="M 232 448 L 280 448 C 284.41828 448 288 451.5817 288 456 L 288 504 C 288 508.4183 284.41828 512 280 512 L 232 512 C 227.58172 512 224 508.4183 224 504 L 224 456 C 224 451.5817 227.58172 448 232 448 Z" fill="white"/>
        </g>
        <g id="Graphic_150">
          <title>path1</title>
          <path d="M 272.47375 475.93 C 272.47375 471.5852 272.29415 468.6016 271.93698 466.9825 C 271.5825 465.3634 271.0255 464.13526 270.2693 463.2987 C 269.84054 462.8126 269.27002 462.5695 268.5577 462.5695 C 267.4943 462.5695 266.62938 463.2582 265.95623 464.63557 C 264.75305 467.0392 264.1508 470.3307 264.1508 474.5135 L 264.1508 475.93136 C 264.1508 475.93136 272.47375 475.93136 272.47375 475.93 Z M 279.99932 478.64356 L 264.30406 478.64356 C 264.4877 483.66353 265.49913 487.6302 267.3336 490.547 C 268.74 492.7886 270.43268 493.9067 272.41096 493.9067 C 273.63304 493.9067 274.74574 493.4523 275.74366 492.5496 C 276.7463 491.64485 277.81646 490.01767 278.95752 487.6714 L 280 488.564 C 278.44978 492.7501 276.73415 495.7088 274.85984 497.4514 C 272.9842 499.19 270.8128 500.06437 268.34232 500.06437 C 264.09948 500.06437 260.8883 497.9058 258.70545 493.5867 C 256.95133 490.10274 256.0736 485.7836 256.0736 480.6313 C 256.0736 474.31565 257.36454 469.28825 259.9451 465.5491 C 262.52428 461.80994 265.5491 459.9417 269.01682 459.9417 C 271.912 459.9417 274.42503 461.51286 276.55725 464.6585 C 278.68812 467.80015 279.83458 472.4636 279.99932 478.64356 Z M 244.979 480.9338 C 240.9232 482.3091 238.89293 484.58246 238.89293 487.66534 L 238.89293 490.7482 C 238.89293 492.69274 239.7862 494.1552 241.57137 494.1552 C 243.51792 494.1552 244.9797 492.451 244.9797 490.34175 C 244.9797 490.34175 244.9797 480.9338 244.979 480.9338 Z M 251.87127 500.07247 C 249.3569 500.07247 247.4117 498.7741 246.60012 495.8573 C 245.13768 498.6141 242.62398 500.07247 239.6228 500.07247 C 235.0822 500.07247 232 496.58516 232 490.58617 L 232 488.7159 C 232 481.5779 237.51488 478.17296 244.979 475.41484 L 244.979 469.4125 C 244.979 467.4666 244.16677 466.33095 242.30057 466.33095 C 240.35334 466.33095 239.70382 467.4666 239.70382 469.5759 L 239.70382 472.9842 L 233.1343 472.9842 L 233.1343 469.90266 C 233.1343 464.14336 236.2982 459.9262 242.62398 459.9262 C 248.95043 459.9262 251.9523 464.3054 251.9523 470.47116 L 251.9523 492.69274 C 251.9523 493.91144 252.44112 494.5603 253.57272 494.6413 L 253.57272 500.0738 L 251.86992 500.0738 Z" fill="white"/>
        </g>
        <g id="Group_158">
          <title>aeon-unread</title>
          <g id="Graphic_159">
            <title>path38</title>
            <path d="M 232 448 C 227.58172 448 224 451.5817 224 456 L 224 504 C 224 508.4183 227.58172 512 232 512 L 280 512 C 284.41828 512 288 508.4183 288 504 L 288 456 C 288 451.5817 284.41828 448 280 448 Z M 242.62305 459.9258 C 248.9495 459.9258 251.95312 464.3049 251.95312 470.4707 L 251.95312 492.69336 C 251.95312 493.91206 252.44067 494.55963 253.57227 494.6406 L 253.57227 500.0742 L 251.86914 500.0742 L 251.8711 500.07227 C 249.35673 500.07227 247.4112 498.7742 246.5996 495.8574 C 245.13717 498.6142 242.62422 500.07227 239.62305 500.07227 C 235.08245 500.07227 232 496.5849 232 490.58594 L 232 488.7168 C 232 481.5788 237.5144 478.1722 244.97852 475.41406 L 244.97852 469.4121 C 244.97852 467.4662 244.16698 466.3301 242.30078 466.3301 C 240.35355 466.3301 239.70312 467.46687 239.70312 469.57617 L 239.70312 472.9844 L 233.13477 472.9844 L 233.13477 469.90234 C 233.13477 464.1431 236.29727 459.9258 242.62305 459.9258 Z M 269.01758 459.9414 C 271.91276 459.9414 274.42442 461.51257 276.55664 464.6582 C 278.6875 467.79985 279.83526 472.4646 280 478.64453 L 264.3047 478.64453 C 264.48833 483.66447 265.49952 487.6301 267.33398 490.5469 C 268.74038 492.78847 270.43188 493.90625 272.41016 493.90625 C 273.63224 493.90625 274.74622 493.45153 275.74414 492.54883 C 276.74678 491.6441 277.81597 490.01817 278.95703 487.6719 L 280 488.56445 C 278.44978 492.75055 276.73368 495.70857 274.85938 497.45117 C 272.98374 499.18977 270.81227 500.06445 268.3418 500.06445 C 264.09896 500.06445 260.88793 497.90503 258.70508 493.58594 C 256.95096 490.102 256.07422 485.78315 256.07422 480.63086 C 256.07422 474.3152 257.36476 469.28797 259.9453 465.54883 C 262.5245 461.80963 265.54986 459.9414 269.01758 459.9414 Z M 268.5586 462.5703 C 267.4952 462.5703 266.63018 463.25737 265.95703 464.63477 C 264.75385 467.03836 264.1504 470.3309 264.1504 474.51367 L 264.1504 475.93164 C 264.1504 475.93164 272.4746 475.9307 272.4746 475.9297 C 272.4746 471.5849 272.29467 468.6015 271.9375 466.9824 C 271.58302 465.3633 271.02573 464.1354 270.26953 463.29883 C 269.84077 462.81273 269.2709 462.5703 268.5586 462.5703 Z M 244.97852 480.9336 C 240.92272 482.3089 238.89258 484.5832 238.89258 487.666 L 238.89258 490.74805 C 238.89258 492.69254 239.7871 494.1543 241.57227 494.1543 C 243.5188 494.1543 244.98047 492.45104 244.98047 490.3418 C 244.98047 490.3418 244.97922 480.9336 244.97852 480.9336 Z" fill="#940d51"/>
          </g>
        </g>
      </g>
    </g>
  </g>
</svg>
