<?xml version="1.0" encoding="UTF-8" standalone="no"?>
<!DOCTYPE svg PUBLIC "-//W3C//DTD SVG 1.1//EN" "http://www.w3.org/Graphics/SVG/1.1/DTD/svg11.dtd">
<svg xmlns="http://www.w3.org/2000/svg" xmlns:xl="http://www.w3.org/1999/xlink" xmlns:dc="http://purl.org/dc/elements/1.1/" version="1.1" viewBox="791.3973 372 47.945314 56" width="47.945314" height="56">
  <defs/>
  <g id="Canvas_1" stroke-dasharray="none" fill-opacity="1" stroke-opacity="1" stroke="none" fill="none">
    <title>Canvas 1</title>
    <g id="Canvas_1_Layer_1">
      <title>Layer 1</title>
      <g id="Graphic_322">
        <path d="M 823.179 381.09213 C 825.0074 378.73398 826.3982 375.4043 825.8941 372 C 822.9047 372.2058 819.4081 374.11704 817.3658 376.60502 C 815.5126 378.86523 813.9827 382.2173 814.5783 385.47345 C 817.8421 385.57537 821.2183 383.6184 823.179 381.09213 Z M 835.6407 392.2033 C 836.2615 391.6837 836.9526 391.20977 837.7153 390.79033 C 834.8411 387.19164 830.8059 385.11044 826.9999 385.11044 C 821.9626 385.11044 819.8341 387.5124 816.3395 387.5124 C 812.738 387.5124 809.9991 385.1139 805.642 385.1139 C 801.3631 385.1139 796.813 387.7242 793.9285 392.184 C 793.9249 392.18944 793.9213 392.1949 793.9177 392.20037 L 793.7271 392.20036 L 793.7295 392.20036 L 793.7271 392.20036 C 792.4849 394.15467 791.6254 396.95576 791.3973 399.41264 L 791.5543 399.41264 C 791.3083 401.63214 791.3717 404.05143 791.7633 406.56084 C 792.1267 408.89503 792.7732 411.3069 793.7174 413.70833 C 793.7175 413.70836 793.7175 413.7084 793.7175 413.70843 C 794.5963 415.94427 795.7335 418.17164 797.1382 420.32003 C 797.2556 420.4985 797.37485 420.67844 797.4952 420.85846 C 799.8074 424.3095 802.8404 427.9634 806.7465 427.99963 C 810.3999 428.03395 811.4347 425.6593 816.3913 425.6315 C 821.348 425.6042 822.2852 428.025 825.9387 427.9917 C 829.6828 427.95635 832.7684 424.2359 835.0667 420.855 C 835.0667 420.855 835.0667 420.855 835.0667 420.855 C 835.2925 420.52436 835.5094 420.1968 835.7193 419.87656 C 837.2794 417.49206 837.933 416.2003 839.0603 413.7115 L 839.0604 413.7115 C 839.0605 413.71145 839.0605 413.7114 839.0605 413.7114 C 839.151 413.5106 839.2451 413.3023 839.3426 413.08455 C 836.059 411.83903 833.727 409.4153 832.4669 406.56237 C 831.4776 404.3234 831.1494 401.8186 831.5405 399.4116 L 831.6975 399.4116 C 832.1332 396.7237 833.5821 394.1557 835.8785 392.20333 Z" fill="#8ea4ae"/>
      </g>
    </g>
  </g>
</svg>
