<?xml version="1.0" encoding="UTF-8" standalone="no"?>
<!DOCTYPE svg PUBLIC "-//W3C//DTD SVG 1.1//EN" "http://www.w3.org/Graphics/SVG/1.1/DTD/svg11.dtd">
<svg xmlns:xl="http://www.w3.org/1999/xlink" xmlns="http://www.w3.org/2000/svg" version="1.1" xmlns:dc="http://purl.org/dc/elements/1.1/" viewBox="784 288 64 64" width="64" height="64">
  <defs/>
  <g id="Canvas_1" stroke-dasharray="none" stroke="none" stroke-opacity="1" fill-opacity="1" fill="none">
    <title>Canvas 1</title>
    <g id="Canvas_1_Layer_1">
      <title>Layer 1</title>
      <g id="Group_144">
        <title>apple-IIe-unread</title>
        <g id="Graphic_135"/>
        <g id="Group_117">
          <g id="Graphic_124">
            <path d="M 793.8759 312.26607 C 793.8928 312.23828 793.9106 312.2109 793.9285 312.184 C 796.813 307.7242 801.3631 305.1139 805.642 305.1139 C 809.9991 305.1139 812.738 307.5124 816.3395 307.5124 C 819.8341 307.5124 821.9626 305.11044 826.9999 305.11044 C 830.8059 305.11044 834.8411 307.19164 837.7153 310.79033 C 836.9206 311.22736 836.2037 311.72355 835.5629 312.26893 L 793.8759 312.26608 Z" fill="#61bb46"/>
          </g>
          <g id="Graphic_123">
            <path d="M 823.179 301.09213 C 825.0074 298.73398 826.3982 295.4043 825.8941 292 C 822.9047 292.2058 819.4081 294.11704 817.3658 296.60502 C 815.5126 298.86523 813.9827 302.2173 814.5783 305.47345 C 817.8421 305.57537 821.2183 303.6184 823.179 301.09213 Z" fill="#61bb46"/>
          </g>
          <g id="Graphic_122">
            <path d="M 793.7271 312.20036 C 792.4849 314.15467 791.6254 316.95576 791.3973 319.41264 L 831.6975 319.4116 C 832.1332 316.7237 833.5821 314.1557 835.8785 312.20333 L 793.7271 312.20036 L 793.7295 312.20036 Z" fill="#fdb827"/>
          </g>
          <g id="Graphic_121">
            <path d="M 791.7633 326.56084 C 791.3717 324.05147 791.3083 321.6322 791.5543 319.41274 L 831.5405 319.4117 C 831.1494 321.81865 831.4776 324.32343 832.4669 326.56236 L 791.7633 326.56083 Z" fill="#f5821f"/>
          </g>
          <g id="Graphic_120">
            <path d="M 793.7175 333.70843 C 792.7732 331.307 792.1267 328.89507 791.7633 326.56084 L 832.4669 326.56237 C 833.727 329.4153 836.059 331.83903 839.3426 333.08455 C 839.2451 333.30235 839.151 333.5107 839.0604 333.7115 L 793.7175 333.70843 Z" fill="#e03a3e"/>
          </g>
          <g id="Graphic_119">
            <path d="M 839.0603 333.7114 C 837.933 336.2003 837.2794 337.49203 835.7193 339.87656 C 835.5094 340.1968 835.2925 340.52437 835.0667 340.855 L 797.4952 340.85848 C 797.3749 340.67845 797.2556 340.49852 797.1382 340.32003 C 795.7335 338.1716 794.5963 335.9442 793.7175 333.70833 L 839.0603 333.71138 Z" fill="#963d97"/>
          </g>
          <g id="Graphic_118">
            <path d="M 835.0667 340.855 C 832.7684 344.2359 829.6828 347.95635 825.9387 347.9917 C 822.2852 348.025 821.348 345.6042 816.3913 345.6315 C 811.4347 345.6593 810.3999 348.03395 806.7465 347.99963 C 802.8404 347.9634 799.8073 344.3095 797.4952 340.85846 L 835.0667 340.855 Z" fill="#009ddc"/>
          </g>
        </g>
      </g>
    </g>
  </g>
</svg>
