<?xml version="1.0" encoding="UTF-8" standalone="no"?>
<!DOCTYPE svg PUBLIC "-//W3C//DTD SVG 1.1//EN" "http://www.w3.org/Graphics/SVG/1.1/DTD/svg11.dtd">
<svg xmlns:xl="http://www.w3.org/1999/xlink" xmlns="http://www.w3.org/2000/svg" version="1.1" xmlns:dc="http://purl.org/dc/elements/1.1/" viewBox="544 288 64 64" width="64" height="64">
  <defs/>
  <g id="Canvas_1" stroke-dasharray="none" stroke="none" stroke-opacity="1" fill-opacity="1" fill="none">
    <title>Canvas 1</title>
    <g id="Canvas_1_Layer_1">
      <title>Layer 1</title>
      <g id="Group_280">
        <g id="Graphic_258">
          <path d="M 552 288 L 600 288 C 604.4183 288 608 291.58172 608 296 L 608 344 C 608 348.41828 604.4183 352 600 352 L 552 352 C 547.5817 352 544 348.41828 544 344 L 544 296 C 544 291.58172 547.5817 288 552 288 Z" fill="white"/>
        </g>
        <g id="Graphic_74">
          <title>ars-technica-unread</title>
          <path d="M 552 288 C 547.5817 288 544 291.58172 544 296 L 544 344 C 544 348.41828 547.5817 352 552 352 L 600 352 C 604.4183 352 608 348.41828 608 344 L 608 296 C 608 291.58172 604.4183 288 600 288 L 552 288 Z M 575.4225 318.20587 L 575.4225 329.91157 L 571.74486 329.91157 L 571.74486 310.13297 L 574.7049 310.13297 L 575.3328 314.1694 C 576.72314 311.92695 579.01046 309.90872 582.2845 309.72932 L 582.8675 313.27243 C 579.54866 313.40698 576.768 315.6046 575.4225 318.20587 Z M 592.15135 330.3152 L 592.15135 330.3152 C 589.6308 330.2565 587.1586 329.61157 584.9306 328.43154 L 585.4688 324.9333 C 587.51506 326.38754 589.95514 327.18526 592.4653 327.2206 C 594.97686 327.2206 596.50174 326.27876 596.50174 324.61934 C 596.50174 322.9599 595.3805 322.10777 591.79255 321.25563 C 587.1282 320.08954 585.2894 318.6992 585.2894 315.1561 C 585.2894 311.613 587.9355 309.68447 592.2859 309.68447 C 594.5238 309.67355 596.7392 310.1319 598.7891 311.02996 L 598.206 314.5282 C 596.37676 313.46655 594.31046 312.8806 592.1962 312.82393 C 589.9537 312.82393 588.78764 313.67607 588.78764 315.11126 C 588.78764 316.54644 589.7743 317.17433 592.9138 317.98162 C 597.8024 319.2374 600 320.62774 600 324.3951 C 600 328.16244 597.2642 330.3152 592.15135 330.3152 Z M 566.8114 316.0531 L 566.8114 316.0531 C 566.8114 316.0531 566.8114 316.0531 566.8114 316.0531 C 566.8114 316.0531 566.8114 316.0531 566.8114 316.0531 L 566.8114 316.0531 L 566.8114 329.91157 L 563.85136 329.91157 L 563.4477 327.26545 C 561.6571 329.2332 559.11156 330.34283 556.4512 330.3152 C 552.86324 330.3152 550.6208 328.16244 550.6208 324.79873 C 550.6208 319.8653 554.8366 317.89192 563.13377 317.03978 L 563.13377 316.18764 C 563.13377 313.67607 561.65373 312.82393 559.3664 312.82393 C 557.0791 312.82393 554.6572 313.58637 552.50445 314.5282 L 552.0111 311.3439 C 554.3881 310.40206 556.6306 309.68447 559.68036 309.68447 C 564.47925 309.68447 566.8114 311.613 566.8114 316.0531 Z M 563.13377 319.8653 L 563.13377 319.8653 C 555.8233 320.5829 554.2984 322.55626 554.2984 324.61934 C 554.2984 326.6824 555.3748 327.26545 557.2585 327.26545 C 559.14217 327.26545 561.47434 326.18907 563.13377 324.4848 Z" fill="#ff4e00"/>
        </g>
      </g>
    </g>
  </g>
</svg>
