<?xml version="1.0" encoding="UTF-8" standalone="no"?>
<!DOCTYPE svg PUBLIC "-//W3C//DTD SVG 1.1//EN" "http://www.w3.org/Graphics/SVG/1.1/DTD/svg11.dtd">
<svg xmlns="http://www.w3.org/2000/svg" xmlns:xl="http://www.w3.org/1999/xlink" xmlns:dc="http://purl.org/dc/elements/1.1/" version="1.1" viewBox="544 368 64 64" width="64" height="64">
  <defs/>
  <g id="Canvas_1" stroke-dasharray="none" fill-opacity="1" stroke-opacity="1" stroke="none" fill="none">
    <title>Canvas 1</title>
    <g id="Canvas_1_Layer_1">
      <title>Layer 1</title>
      <g id="Group_332">
        <g id="Graphic_264">
          <path d="M 552 368 L 600 368 C 604.4183 368 608 371.5817 608 376 L 608 424 C 608 428.4183 604.4183 432 600 432 L 552 432 C 547.5817 432 544 428.4183 544 424 L 544 376 C 544 371.5817 547.5817 368 552 368 Z" fill="white"/>
        </g>
        <g id="Graphic_75">
          <title>ars-technica-read</title>
          <path d="M 552 368 C 547.5817 368 544 371.5817 544 376 L 544 424 C 544 428.4183 547.5817 432 552 432 L 600 432 C 604.4183 432 608 428.4183 608 424 L 608 376 C 608 371.5817 604.4183 368 600 368 L 552 368 Z M 575.4225 398.20587 L 575.4225 409.91157 L 571.74486 409.91157 L 571.74486 390.13297 L 574.7049 390.13297 L 575.3328 394.1694 C 576.72314 391.92695 579.01046 389.9087 582.2845 389.72932 L 582.8675 393.27243 C 579.54866 393.407 576.768 395.6046 575.4225 398.20587 Z M 592.15135 410.3152 L 592.15135 410.3152 C 589.6308 410.2565 587.1586 409.61157 584.9306 408.43154 L 585.4688 404.9333 C 587.51506 406.38754 589.95514 407.18526 592.4653 407.2206 C 594.97686 407.2206 596.50174 406.27876 596.50174 404.61934 C 596.50174 402.9599 595.3805 402.10777 591.79255 401.25563 C 587.1282 400.08954 585.2894 398.6992 585.2894 395.1561 C 585.2894 391.613 587.9355 389.68447 592.2859 389.68447 C 594.5238 389.67355 596.7392 390.1319 598.7891 391.02996 L 598.206 394.5282 C 596.37676 393.46655 594.31046 392.8806 592.1962 392.82393 C 589.9537 392.82393 588.78764 393.67607 588.78764 395.11126 C 588.78764 396.54644 589.7743 397.17433 592.9138 397.9816 C 597.8024 399.2374 600 400.62774 600 404.3951 C 600 408.16244 597.2642 410.3152 592.15135 410.3152 Z M 566.8114 396.0531 L 566.8114 396.0531 C 566.8114 396.0531 566.8114 396.0531 566.8114 396.0531 C 566.8114 396.0531 566.8114 396.0531 566.8114 396.0531 L 566.8114 396.0531 L 566.8114 409.91157 L 563.85136 409.91157 L 563.4477 407.26545 C 561.6571 409.2332 559.11156 410.34283 556.4512 410.3152 C 552.86324 410.3152 550.6208 408.16244 550.6208 404.79873 C 550.6208 399.8653 554.8366 397.8919 563.13377 397.0398 L 563.13377 396.18764 C 563.13377 393.67607 561.65373 392.82393 559.3664 392.82393 C 557.0791 392.82393 554.6572 393.58637 552.50445 394.5282 L 552.0111 391.3439 C 554.3881 390.40206 556.6306 389.68447 559.68036 389.68447 C 564.47925 389.68447 566.8114 391.613 566.8114 396.0531 Z M 563.13377 399.8653 L 563.13377 399.8653 C 555.8233 400.5829 554.2984 402.55626 554.2984 404.61934 C 554.2984 406.6824 555.3748 407.26545 557.2585 407.26545 C 559.14217 407.26545 561.47434 406.18907 563.13377 404.4848 Z" fill="#8ba5af"/>
        </g>
      </g>
    </g>
  </g>
</svg>
