<?xml version="1.0" encoding="UTF-8" standalone="no"?>
<!DOCTYPE svg PUBLIC "-//W3C//DTD SVG 1.1//EN" "http://www.w3.org/Graphics/SVG/1.1/DTD/svg11.dtd">
<svg xmlns="http://www.w3.org/2000/svg" xmlns:xl="http://www.w3.org/1999/xlink" xmlns:dc="http://purl.org/dc/elements/1.1/" version="1.1" viewBox="304 368 64 64" width="64" height="64">
  <defs/>
  <g id="Canvas_1" stroke-dasharray="none" fill-opacity="1" stroke-opacity="1" stroke="none" fill="none">
    <title>Canvas 1</title>
    <g id="Canvas_1_Layer_1">
      <title>Layer 1</title>
      <g id="Group_330">
        <g id="Graphic_267">
          <path d="M 312 368 L 360 368 C 364.41828 368 368 371.5817 368 376 L 368 424 C 368 428.4183 364.41828 432 360 432 L 312 432 C 307.58172 432 304 428.4183 304 424 L 304 376 C 304 371.5817 307.58172 368 312 368 Z" fill="white"/>
        </g>
        <g id="Graphic_82">
          <title>biorxiv-read</title>
          <path d="M 312 368 L 312 368 C 307.58172 368 304 371.5817 304 376 L 304 424 C 304 428.4183 307.58172 432 312 432 L 360 432 C 364.41828 432 368 428.4183 368 424 L 368 376 C 368 371.5817 364.41828 368 360 368 Z M 310.09363 380 L 320.57168 380 C 323.9795 380 326.6485 380.6906 328.5783 382.0703 C 330.5072 383.45084 331.47234 385.3661 331.47234 387.81667 C 331.47234 389.73245 330.82413 391.33793 329.52897 392.6331 C 328.7962 393.36585 328.0777 393.9007 327.37394 394.23855 C 326.66954 394.57665 325.55714 394.92904 324.03604 395.2947 L 326.86686 399.05497 C 327.45848 399.84393 328.261 400.8157 329.27507 401.9705 C 330.40126 403.2381 331.61266 404.5337 332.9086 405.85748 C 334.0632 407.06886 334.97177 407.9491 335.63396 408.4981 C 336.29553 409.04753 337.30282 409.7024 338.65497 410.4627 L 331.81047 410.4627 C 330.6834 410.4627 329.472 409.81505 328.17667 408.5191 C 326.65557 406.97025 325.10644 405.0693 323.5292 402.8155 C 322.45857 401.379 321.5151 400.05518 320.6984 398.8438 C 320.05018 397.88656 319.12057 396.43526 317.9098 394.49173 C 323.2052 393.7596 325.8527 391.70333 325.8527 388.32326 C 325.8527 385.16897 323.61354 383.59107 319.1349 383.59107 L 317.4452 383.59107 L 317.4452 406.73907 C 317.4452 407.55766 317.5931 408.22065 317.8888 408.72833 C 318.18453 409.2366 318.75515 409.815 319.60024 410.4632 L 309.8822 410.4632 L 309.8822 410.46295 C 310.67053 409.87133 311.2198 409.30843 311.53016 408.773 C 311.83987 408.2382 311.995 407.5899 311.995 406.8294 L 311.995 383.88697 C 311.995 383.2394 311.86204 382.60584 311.5968 381.98584 C 311.41973 381.70474 311.24264 381.43664 311.0658 381.1831 C 310.88896 380.9296 310.565 380.53543 310.09363 380 Z M 340.49384 389.83596 L 340.49384 389.83596 C 342.71955 389.851 344.7079 390.80494 345.9206 393.4097 C 347.01317 395.75624 347.98064 398.1609 349.0068 400.5386 C 349.15776 400.88716 349.3214 401.22986 349.55758 401.74834 C 350.3271 400.7389 351.097 399.87655 351.69967 398.90995 C 353.31054 396.3264 355.8327 392.2185 356.41843 391.08816 C 356.71724 390.4832 357.15298 390.0541 357.4282 390.0276 C 357.70365 390.0011 358.0554 389.99165 358.353 390.1775 C 358.65056 390.3636 358.8793 390.8126 358.67088 391.6924 C 358.46246 392.5722 358.34282 392.8925 358.05418 393.57034 C 356.36457 397.26778 353.88572 400.45217 351.28 403.5325 C 350.7884 404.1137 350.76675 404.53926 351.0422 405.19683 C 352.21807 408.0051 353.3204 410.84397 354.488 413.65583 C 354.87623 414.5905 355.35594 415.4902 355.83518 416.3836 C 356.31967 417.287 356.66574 417.7646 358.13694 417.7447 C 358.74317 417.74273 359.8956 417.58087 359.99315 418.45833 C 360.09987 419.41745 358.9353 419.56043 358.2412 419.702 C 357.45766 419.86175 357.06315 419.92276 356.2617 419.92464 C 354.41403 419.9286 352.2306 419.2215 351.32614 417.58015 C 350.4002 415.89997 349.90053 414.6747 349.051 412.3797 C 348.4934 410.87305 347.86713 409.39017 347.2114 407.7139 C 346.84217 408.11026 346.49456 408.3864 346.26924 408.74054 C 343.4727 412.53195 341.84893 415.5991 340.59638 417.75227 C 339.60882 419.4498 339.5262 420.19963 338.35345 419.95467 C 337.28407 419.5176 337.59277 418.08263 337.67694 417.71907 C 338.1731 415.57654 339.7432 413.4718 340.96674 411.62165 C 342.33435 409.55364 344.01556 407.69498 345.5141 405.7105 C 345.7359 405.41666 345.8883 404.8572 345.76216 404.5467 C 344.4186 401.2408 343.0216 397.956 341.61933 394.6741 C 340.8567 393.04697 340.33786 392.00957 337.3383 392.12234 C 336.84217 392.07723 336.5414 391.94664 336.5495 391.3738 C 336.5495 390.67906 337.0185 390.43227 337.36224 390.33034 C 338.42137 390.01606 339.48215 389.8291 340.49384 389.83596 Z" fill="#8ba5af"/>
        </g>
      </g>
    </g>
  </g>
</svg>
