<?xml version="1.0" encoding="UTF-8" standalone="no"?>
<!DOCTYPE svg PUBLIC "-//W3C//DTD SVG 1.1//EN" "http://www.w3.org/Graphics/SVG/1.1/DTD/svg11.dtd">
<svg xmlns:xl="http://www.w3.org/1999/xlink" xmlns="http://www.w3.org/2000/svg" version="1.1" xmlns:dc="http://purl.org/dc/elements/1.1/" viewBox="304 288 64 64" width="64" height="64">
  <defs/>
  <g id="Canvas_1" stroke-dasharray="none" stroke="none" stroke-opacity="1" fill-opacity="1" fill="none">
    <title>Canvas 1</title>
    <g id="Canvas_1_Layer_1">
      <title>Layer 1</title>
      <g id="Group_277">
        <g id="Graphic_261">
          <path d="M 312 288 L 360 288 C 364.41828 288 368 291.58172 368 296 L 368 344 C 368 348.41828 364.41828 352 360 352 L 312 352 C 307.58172 352 304 348.41828 304 344 L 304 296 C 304 291.58172 307.58172 288 312 288 Z" fill="white"/>
        </g>
        <g id="Graphic_81">
          <title>biorxiv-unread</title>
          <path d="M 312 288 L 312 288 C 307.58172 288 304 291.58172 304 296 L 304 344 C 304 348.41828 307.58172 352 312 352 L 360 352 C 364.41828 352 368 348.41828 368 344 L 368 296 C 368 291.58172 364.41828 288 360 288 Z M 310.09363 300 L 320.57168 300 C 323.9795 300 326.6485 300.6906 328.5783 302.0703 C 330.5072 303.45084 331.47234 305.36608 331.47234 307.81667 C 331.47234 309.73245 330.82413 311.33793 329.52897 312.6331 C 328.7962 313.36585 328.0777 313.9007 327.37394 314.23855 C 326.66954 314.57665 325.55714 314.92904 324.03604 315.2947 L 326.86686 319.05497 C 327.45848 319.84393 328.261 320.8157 329.27507 321.9705 C 330.40126 323.23808 331.61266 324.5337 332.9086 325.85748 C 334.0632 327.06886 334.97177 327.9491 335.63396 328.4981 C 336.29553 329.04753 337.30282 329.7024 338.65497 330.4627 L 331.81047 330.4627 C 330.6834 330.4627 329.472 329.81505 328.17667 328.5191 C 326.65557 326.97025 325.10644 325.0693 323.5292 322.81548 C 322.45857 321.379 321.5151 320.05518 320.6984 318.8438 C 320.05018 317.88656 319.12057 316.43526 317.9098 314.49173 C 323.2052 313.7596 325.8527 311.70333 325.8527 308.32326 C 325.8527 305.16897 323.61354 303.59107 319.1349 303.59107 L 317.4452 303.59107 L 317.4452 326.73907 C 317.4452 327.55766 317.5931 328.22065 317.8888 328.72833 C 318.18453 329.2366 318.75515 329.815 319.60024 330.4632 L 309.8822 330.4632 L 309.8822 330.46295 C 310.67053 329.87133 311.2198 329.30843 311.53016 328.773 C 311.83987 328.2382 311.995 327.58992 311.995 326.8294 L 311.995 303.88697 C 311.995 303.2394 311.86204 302.60584 311.5968 301.98584 C 311.41973 301.70474 311.24264 301.43664 311.0658 301.1831 C 310.88896 300.9296 310.565 300.53543 310.09363 300 Z M 340.49384 309.83596 L 340.49384 309.83596 C 342.71955 309.851 344.7079 310.80494 345.9206 313.4097 C 347.01317 315.75624 347.98064 318.1609 349.0068 320.5386 C 349.15776 320.88716 349.3214 321.22986 349.55758 321.74834 C 350.3271 320.7389 351.097 319.87655 351.69967 318.90995 C 353.31054 316.32638 355.8327 312.21852 356.41843 311.08816 C 356.71724 310.48318 357.15298 310.0541 357.4282 310.0276 C 357.70365 310.0011 358.0554 309.99165 358.353 310.1775 C 358.65056 310.3636 358.8793 310.8126 358.67088 311.6924 C 358.46246 312.5722 358.34282 312.8925 358.05418 313.57034 C 356.36457 317.26778 353.88572 320.45217 351.28 323.5325 C 350.7884 324.1137 350.76675 324.53926 351.0422 325.19683 C 352.21807 328.0051 353.3204 330.84397 354.488 333.65583 C 354.87623 334.5905 355.35594 335.4902 355.83518 336.3836 C 356.31967 337.287 356.66574 337.76458 358.13694 337.7447 C 358.74317 337.74273 359.8956 337.58087 359.99315 338.45833 C 360.09987 339.41745 358.9353 339.56043 358.2412 339.702 C 357.45766 339.86175 357.06315 339.92276 356.2617 339.92464 C 354.41403 339.92858 352.2306 339.2215 351.32614 337.58015 C 350.4002 335.89997 349.90053 334.6747 349.051 332.3797 C 348.4934 330.87305 347.86713 329.39017 347.2114 327.71392 C 346.84217 328.11026 346.49456 328.3864 346.26924 328.74054 C 343.4727 332.53195 341.84893 335.59912 340.59638 337.75227 C 339.60882 339.4498 339.5262 340.19963 338.35345 339.95467 C 337.28407 339.51762 337.59277 338.08263 337.67694 337.71907 C 338.1731 335.57654 339.7432 333.4718 340.96674 331.62165 C 342.33435 329.55364 344.01556 327.69498 345.5141 325.7105 C 345.7359 325.41666 345.8883 324.8572 345.76216 324.5467 C 344.4186 321.2408 343.0216 317.956 341.61933 314.6741 C 340.8567 313.04697 340.33786 312.00957 337.3383 312.12234 C 336.84217 312.07723 336.5414 311.94664 336.5495 311.3738 C 336.5495 310.67906 337.0185 310.43227 337.36224 310.33034 C 338.42137 310.01606 339.48215 309.82912 340.49384 309.83596 Z" fill="#b82734"/>
        </g>
      </g>
    </g>
  </g>
</svg>
