<?xml version="1.0" encoding="UTF-8" standalone="no"?>
<!DOCTYPE svg PUBLIC "-//W3C//DTD SVG 1.1//EN" "http://www.w3.org/Graphics/SVG/1.1/DTD/svg11.dtd">
<svg xmlns:xl="http://www.w3.org/1999/xlink" xmlns="http://www.w3.org/2000/svg" version="1.1" xmlns:dc="http://purl.org/dc/elements/1.1/" viewBox="624 288 64 64" width="64" height="64">
  <defs/>
  <g id="Canvas_1" stroke-dasharray="none" stroke="none" stroke-opacity="1" fill-opacity="1" fill="none">
    <title>Canvas 1</title>
    <g id="Canvas_1_Layer_1">
      <title>Layer 1</title>
      <g id="Group_281">
        <g id="Graphic_257">
          <path d="M 632 288 L 680 288 C 684.4183 288 688 291.58172 688 296 L 688 344 C 688 348.41828 684.4183 352 680 352 L 632 352 C 627.5817 352 624 348.41828 624 344 L 624 296 C 624 291.58172 627.5817 288 632 288 Z" fill="white"/>
        </g>
        <g id="Graphic_102">
          <title>boing-boing-unread</title>
          <path d="M 632 288 L 632 288 C 627.5817 288 624 291.58172 624 296 L 624 344 C 624 348.41828 627.5817 352 632 352 L 680 352 C 684.4183 352 688 348.41828 688 344 L 688 296 C 688 291.58172 684.4183 288 680 288 Z M 641.5979 306.722 L 641.5979 319.0627 L 632 319.0627 L 632 304 L 636.1124 304 L 636.1124 306.7393 Z M 637.4855 310.83787 L 636.102 310.83787 L 636.102 314.95028 L 637.4855 314.95028 Z M 652.5655 304 L 652.5655 319.08 L 642.9676 319.08 L 642.9676 304 Z M 648.4531 308.0951 L 647.0696 308.0951 L 647.0696 314.95028 L 648.4531 314.95028 Z M 658.051 304 L 658.051 308.0951 L 653.9386 308.0951 L 653.9386 304 Z M 658.051 309.48206 L 658.051 319.0627 L 653.9386 319.0627 L 653.9386 309.46476 Z M 659.4241 319.0627 L 659.4241 304 L 669.0082 304 L 669.0082 319.08 L 664.9062 319.08 L 664.9062 308.0951 L 663.5227 308.0951 L 663.5227 319.0627 Z M 679.9896 304 L 679.9896 308.0951 L 674.5041 308.0951 L 674.5041 314.95028 L 675.8876 314.95028 L 675.8876 309.46476 L 680 309.46476 L 680 319.0627 L 670.3917 319.0627 L 670.3917 304 Z M 641.5979 325.802 L 641.5979 338.14267 L 632 338.14267 L 632 323.08 L 636.1124 323.08 L 636.1124 325.8193 Z M 637.4855 329.91786 L 636.102 329.91786 L 636.102 334.03026 L 637.4855 334.03026 Z M 652.5655 323.08 L 652.5655 338.15997 L 642.9676 338.15997 L 642.9676 323.08 Z M 648.4531 327.1751 L 647.0696 327.1751 L 647.0696 334.03026 L 648.4531 334.03026 Z M 658.051 323.08 L 658.051 327.1751 L 653.9386 327.1751 L 653.9386 323.08 Z M 658.051 328.56204 L 658.051 338.14267 L 653.9386 338.14267 L 653.9386 328.54475 Z M 659.4241 338.14267 L 659.4241 323.08 L 669.0082 323.08 L 669.0082 338.15997 L 664.9062 338.15997 L 664.9062 327.1751 L 663.5227 327.1751 L 663.5227 338.14267 Z M 679.9896 323.08 L 679.9896 327.1751 L 674.5041 327.1751 L 674.5041 334.03026 L 675.8876 334.03026 L 675.8876 328.54475 L 680 328.54475 L 680 338.14267 L 670.3917 338.14267 L 670.3917 323.08 Z" fill="#ff181a"/>
        </g>
      </g>
    </g>
  </g>
</svg>
