<?xml version="1.0" encoding="UTF-8" standalone="no"?>
<!DOCTYPE svg PUBLIC "-//W3C//DTD SVG 1.1//EN" "http://www.w3.org/Graphics/SVG/1.1/DTD/svg11.dtd">
<svg xmlns="http://www.w3.org/2000/svg" xmlns:xl="http://www.w3.org/1999/xlink" xmlns:dc="http://purl.org/dc/elements/1.1/" version="1.1" viewBox="624 368 64 64" width="64" height="64">
  <defs/>
  <g id="Canvas_1" stroke-dasharray="none" fill-opacity="1" stroke-opacity="1" stroke="none" fill="none">
    <title>Canvas 1</title>
    <g id="Canvas_1_Layer_1">
      <title>Layer 1</title>
      <g id="Group_333">
        <g id="Graphic_263">
          <path d="M 632 368 L 680 368 C 684.4183 368 688 371.5817 688 376 L 688 424 C 688 428.4183 684.4183 432 680 432 L 632 432 C 627.5817 432 624 428.4183 624 424 L 624 376 C 624 371.5817 627.5817 368 632 368 Z" fill="white"/>
        </g>
        <g id="Graphic_103">
          <title>boing-boing-read</title>
          <path d="M 632 368 L 632 368 C 627.5817 368 624 371.5817 624 376 L 624 424 C 624 428.4183 627.5817 432 632 432 L 680 432 C 684.4183 432 688 428.4183 688 424 L 688 376 C 688 371.5817 684.4183 368 680 368 Z M 641.5979 386.722 L 641.5979 399.0627 L 632 399.0627 L 632 384 L 636.1124 384 L 636.1124 386.7393 Z M 637.4855 390.83787 L 636.102 390.83787 L 636.102 394.9503 L 637.4855 394.9503 Z M 652.5655 384 L 652.5655 399.08 L 642.9676 399.08 L 642.9676 384 Z M 648.4531 388.0951 L 647.0696 388.0951 L 647.0696 394.9503 L 648.4531 394.9503 Z M 658.051 384 L 658.051 388.0951 L 653.9386 388.0951 L 653.9386 384 Z M 658.051 389.48206 L 658.051 399.0627 L 653.9386 399.0627 L 653.9386 389.46476 Z M 659.4241 399.0627 L 659.4241 384 L 669.0082 384 L 669.0082 399.08 L 664.9062 399.08 L 664.9062 388.0951 L 663.5227 388.0951 L 663.5227 399.0627 Z M 679.9896 384 L 679.9896 388.0951 L 674.5041 388.0951 L 674.5041 394.9503 L 675.8876 394.9503 L 675.8876 389.46476 L 680 389.46476 L 680 399.0627 L 670.3917 399.0627 L 670.3917 384 Z M 641.5979 405.802 L 641.5979 418.14267 L 632 418.14267 L 632 403.08 L 636.1124 403.08 L 636.1124 405.8193 Z M 637.4855 409.91786 L 636.102 409.91786 L 636.102 414.03026 L 637.4855 414.03026 Z M 652.5655 403.08 L 652.5655 418.15997 L 642.9676 418.15997 L 642.9676 403.08 Z M 648.4531 407.1751 L 647.0696 407.1751 L 647.0696 414.03026 L 648.4531 414.03026 Z M 658.051 403.08 L 658.051 407.1751 L 653.9386 407.1751 L 653.9386 403.08 Z M 658.051 408.56204 L 658.051 418.14267 L 653.9386 418.14267 L 653.9386 408.54475 Z M 659.4241 418.14267 L 659.4241 403.08 L 669.0082 403.08 L 669.0082 418.15997 L 664.9062 418.15997 L 664.9062 407.1751 L 663.5227 407.1751 L 663.5227 418.14267 Z M 679.9896 403.08 L 679.9896 407.1751 L 674.5041 407.1751 L 674.5041 414.03026 L 675.8876 414.03026 L 675.8876 408.54475 L 680 408.54475 L 680 418.14267 L 670.3917 418.14267 L 670.3917 403.08 Z" fill="#8ba5af"/>
        </g>
      </g>
    </g>
  </g>
</svg>
