<?xml version="1.0" encoding="UTF-8" standalone="no"?>
<!DOCTYPE svg PUBLIC "-//W3C//DTD SVG 1.1//EN" "http://www.w3.org/Graphics/SVG/1.1/DTD/svg11.dtd">
<svg xmlns:xl="http://www.w3.org/1999/xlink" xmlns="http://www.w3.org/2000/svg" version="1.1" xmlns:dc="http://purl.org/dc/elements/1.1/" viewBox="384 448 64 64" width="64" height="64">
  <defs/>
  <g id="Canvas_1" stroke-dasharray="none" stroke="none" stroke-opacity="1" fill-opacity="1" fill="none">
    <title>Canvas 1</title>
    <g id="Canvas_1_Layer_1">
      <title>Layer 1</title>
      <g id="Group_247">
        <title>elife-unread</title>
        <g id="Graphic_182">
          <title>circle1</title>
          <circle cx="416" cy="480" r="30.0000329370404" fill="white"/>
          <circle cx="416" cy="480" r="30.0000329370404" stroke="#bdc3c6" stroke-linecap="butt" stroke-linejoin="round" stroke-width="3"/>
        </g>
        <g id="Group_183">
          <g id="Graphic_181">
            <title>path1</title>
            <path d="M 411.89065 475.88834 C 413.4833 477.481 416.05607 477.481 417.64873 475.88834 L 432.53397 461.0031 C 430.39 459.1654 427.9704 457.7259 425.33637 456.71517 L 411.89065 470.1609 C 410.3286 471.7229 410.3286 474.2957 411.89065 475.88834" fill="#6bb322"/>
          </g>
          <g id="Graphic_180">
            <title>path2</title>
            <path d="M 420.52776 484.52546 C 422.1204 486.1181 422.1204 488.6909 420.52776 490.28353 L 409.0116 501.7997 C 407.41895 503.39234 404.8462 503.39234 403.25353 501.7997 C 401.66087 500.207 401.66087 497.63427 403.25353 496.0416 L 414.7697 484.52546 C 416.36235 482.9328 418.9351 482.9328 420.52776 484.52546" fill="#eb0061"/>
          </g>
          <g id="Graphic_179">
            <title>path3</title>
            <path d="M 409.04224 478.7674 C 410.6349 480.36004 410.6349 482.9328 409.04224 484.52546 C 407.4496 486.1181 404.8768 486.1181 403.28416 484.52546 C 401.6915 482.9328 401.6915 480.36004 403.28416 478.7674 C 404.8768 477.1747 407.4496 477.1747 409.04224 478.7674 M 423.4068 464.4028 C 424.99946 465.9955 424.99946 468.56823 423.4068 470.1609 C 421.81414 471.75355 419.2414 471.75355 417.64873 470.1609 C 416.05607 468.56823 416.05607 465.9955 417.64873 464.4028 C 419.2414 462.81016 421.81414 462.81016 423.4068 464.4028" fill="#166c23"/>
          </g>
          <g id="Graphic_178">
            <title>path4</title>
            <path d="M 411.89065 493.1626 C 413.4833 494.75523 413.4833 497.328 411.89065 498.92065 C 410.298 500.5133 407.72523 500.5133 406.13257 498.92065 C 404.5399 497.328 404.5399 494.75523 406.13257 493.1626 C 407.75586 491.5699 410.3286 491.5699 411.89065 493.1626 M 437.77136 467.28185 C 439.364 468.8745 439.364 471.44727 437.77136 473.03993 C 436.1787 474.6326 433.60595 474.6326 432.0133 473.03993 C 430.42063 471.44727 430.42063 468.8745 432.0133 467.28185 C 433.6366 465.6892 436.1787 465.6892 437.77136 467.28185" fill="#930051"/>
          </g>
          <g id="Graphic_177">
            <title>path5</title>
            <path d="M 429.1649 475.88834 C 430.75754 477.481 430.75754 480.05376 429.1649 481.6464 C 427.5722 483.2391 424.99946 483.2391 423.4068 481.6464 C 421.81414 480.05376 421.81414 477.481 423.4068 475.88834 C 424.99946 474.3263 427.5722 474.3263 429.1649 475.88834" fill="#ea0060"/>
          </g>
          <g id="Graphic_176">
            <title>path6</title>
            <path d="M 432.0439 490.28353 C 433.6366 491.8762 433.6366 494.44895 432.0439 496.0416 C 430.45126 497.63427 427.8785 497.63427 426.28584 496.0416 C 424.6932 494.44895 424.6932 491.8762 426.28584 490.28353 C 427.8785 488.6909 430.45126 488.6909 432.0439 490.28353" fill="#0097d9"/>
          </g>
          <g id="Graphic_175">
            <title>path7</title>
            <path d="M 409.04224 461.5238 C 410.6349 463.11644 410.6349 465.6892 409.04224 467.28185 C 407.4496 468.8745 404.8768 468.8745 403.28416 467.28185 C 401.6915 465.6892 401.6915 463.11644 403.28416 461.5238 C 404.8768 459.9311 407.4496 459.9311 409.04224 461.5238" fill="#005aa0"/>
          </g>
          <g id="Graphic_174">
            <title>path8</title>
            <path d="M 400.4051 487.4045 C 398.81246 485.81183 396.2397 485.81183 394.64705 487.4045 L 392.7175 489.33406 C 393.7282 491.9681 395.19835 494.3877 397.03604 496.53166 L 400.4051 493.1626 C 401.9978 491.5699 401.9978 488.99715 400.4051 487.4045" fill="#930051"/>
          </g>
          <g id="Graphic_173">
            <title>path9</title>
            <path d="M 411.89065 458.64474 C 413.4833 460.2374 416.05607 460.2374 417.64873 458.64474 L 420.52776 455.7657 C 420.61965 455.6738 420.71153 455.5513 420.8034 455.4288 C 419.30264 455.15314 417.7406 455 416.2092 455 C 414.31027 455 412.5032 455.2144 410.7268 455.61256 C 410.69615 456.71517 411.0637 457.8178 411.89065 458.64474" fill="#eb0061"/>
          </g>
          <g id="Graphic_172">
            <title>path10</title>
            <path d="M 400.4051 475.88834 C 401.9978 474.2957 401.9978 471.7229 400.4051 470.13026 C 398.81246 468.5376 396.2397 468.5376 394.64705 470.13026 L 392.16617 472.61114 C 391.0023 476.31713 390.69603 480.26815 391.3086 484.1273 C 392.01303 483.9435 392.6562 483.6066 393.20753 483.08594 Z" fill="#0097d8"/>
          </g>
          <g id="Graphic_171">
            <title>path11</title>
            <path d="M 434.89233 481.6464 C 433.29967 483.2391 433.29967 485.81183 434.89233 487.4045 C 436.36247 488.87464 438.6902 488.9665 440.28287 487.7108 C 441.508 483.7904 441.753 479.6556 440.9873 475.6433 C 440.8648 475.7352 440.7423 475.8271 440.6504 475.91897 C 440.6504 475.88834 434.89233 481.6464 434.89233 481.6464 Z" fill="#005aa0"/>
          </g>
          <g id="Graphic_170">
            <title>path12</title>
            <path d="M 423.4068 498.89 C 421.81414 497.29736 419.2414 497.29736 417.64873 498.89 L 411.89065 504.6481 C 411.79876 504.74 411.7069 504.8625 411.615 504.985 C 415.62727 505.7507 419.7927 505.5057 423.68245 504.28056 C 424.96883 502.6879 424.87695 500.36017 423.4068 498.89" fill="#6bb324"/>
          </g>
        </g>
        <g id="Graphic_222"/>
      </g>
    </g>
  </g>
</svg>
