<?xml version="1.0" encoding="UTF-8" standalone="no"?>
<!DOCTYPE svg PUBLIC "-//W3C//DTD SVG 1.1//EN" "http://www.w3.org/Graphics/SVG/1.1/DTD/svg11.dtd">
<svg xmlns="http://www.w3.org/2000/svg" xmlns:xl="http://www.w3.org/1999/xlink" xmlns:dc="http://purl.org/dc/elements/1.1/" version="1.1" viewBox="384.5 528.5 63 63" width="63" height="63">
  <defs/>
  <g id="Canvas_1" stroke-dasharray="none" fill-opacity="1" stroke-opacity="1" stroke="none" fill="none">
    <title>Canvas 1</title>
    <g id="Canvas_1_Layer_1">
      <title>Layer 1</title>
      <g id="Group_336">
        <g id="Graphic_244">
          <title>circle1</title>
          <circle cx="416" cy="560" r="30.0000329370404" fill="white"/>
          <circle cx="416" cy="560" r="30.0000329370404" stroke="#8ca5af" stroke-linecap="butt" stroke-linejoin="round" stroke-width="3"/>
        </g>
        <g id="Graphic_235">
          <title>path9</title>
          <path d="M 411.89065 538.64474 C 413.4833 540.2374 416.05607 540.2374 417.64873 538.64474 L 420.52776 535.7657 C 420.61965 535.6738 420.71153 535.5513 420.8034 535.4288 C 419.30264 535.15314 417.7406 535 416.2092 535 C 414.31027 535 412.5032 535.2144 410.7268 535.61256 C 410.69615 536.7152 411.0637 537.8178 411.89065 538.64474" fill="#8ca5af"/>
        </g>
        <g id="Graphic_243">
          <title>path1</title>
          <path d="M 411.89065 555.88834 C 413.4833 557.481 416.05607 557.481 417.64873 555.88834 L 432.53397 541.0031 C 430.39 539.1654 427.9704 537.7259 425.33637 536.7152 L 411.89065 550.1609 C 410.3286 551.7229 410.3286 554.2957 411.89065 555.88834" fill="#8ca5af"/>
        </g>
        <g id="Graphic_242">
          <title>path2</title>
          <path d="M 420.52776 564.52546 C 422.1204 566.1181 422.1204 568.6909 420.52776 570.2835 L 409.0116 581.7997 C 407.41895 583.39234 404.8462 583.39234 403.25353 581.7997 C 401.66087 580.207 401.66087 577.6343 403.25353 576.0416 L 414.7697 564.52546 C 416.36235 562.9328 418.9351 562.9328 420.52776 564.52546" fill="#8ca5af"/>
        </g>
        <g id="Graphic_241">
          <title>path3</title>
          <path d="M 409.04224 558.7674 C 410.6349 560.36004 410.6349 562.9328 409.04224 564.52546 C 407.4496 566.1181 404.8768 566.1181 403.28416 564.52546 C 401.6915 562.9328 401.6915 560.36004 403.28416 558.7674 C 404.8768 557.1747 407.4496 557.1747 409.04224 558.7674 M 423.4068 544.4028 C 424.99946 545.9955 424.99946 548.56823 423.4068 550.1609 C 421.81414 551.75355 419.2414 551.75355 417.64873 550.1609 C 416.05607 548.56823 416.05607 545.9955 417.64873 544.4028 C 419.2414 542.81016 421.81414 542.81016 423.4068 544.4028" fill="#8ca5af"/>
        </g>
        <g id="Graphic_240">
          <title>path4</title>
          <path d="M 411.89065 573.1626 C 413.4833 574.7552 413.4833 577.328 411.89065 578.92065 C 410.298 580.5133 407.72523 580.5133 406.13257 578.92065 C 404.5399 577.328 404.5399 574.7552 406.13257 573.1626 C 407.75586 571.5699 410.3286 571.5699 411.89065 573.1626 M 437.77136 547.28185 C 439.364 548.8745 439.364 551.4473 437.77136 553.0399 C 436.1787 554.6326 433.60595 554.6326 432.0133 553.0399 C 430.42063 551.4473 430.42063 548.8745 432.0133 547.28185 C 433.6366 545.6892 436.1787 545.6892 437.77136 547.28185" fill="#8ca5af"/>
        </g>
        <g id="Graphic_239">
          <title>path5</title>
          <path d="M 429.1649 555.88834 C 430.75754 557.481 430.75754 560.05376 429.1649 561.6464 C 427.5722 563.2391 424.99946 563.2391 423.4068 561.6464 C 421.81414 560.05376 421.81414 557.481 423.4068 555.88834 C 424.99946 554.3263 427.5722 554.3263 429.1649 555.88834" fill="#8ca5af"/>
        </g>
        <g id="Graphic_238">
          <title>path6</title>
          <path d="M 432.0439 570.2835 C 433.6366 571.8762 433.6366 574.44895 432.0439 576.0416 C 430.45126 577.6343 427.8785 577.6343 426.28584 576.0416 C 424.6932 574.44895 424.6932 571.8762 426.28584 570.2835 C 427.8785 568.6909 430.45126 568.6909 432.0439 570.2835" fill="#8ca5af"/>
        </g>
        <g id="Graphic_237">
          <title>path7</title>
          <path d="M 409.04224 541.5238 C 410.6349 543.11644 410.6349 545.6892 409.04224 547.28185 C 407.4496 548.8745 404.8768 548.8745 403.28416 547.28185 C 401.6915 545.6892 401.6915 543.11644 403.28416 541.5238 C 404.8768 539.9311 407.4496 539.9311 409.04224 541.5238" fill="#8ca5af"/>
        </g>
        <g id="Graphic_236">
          <title>path8</title>
          <path d="M 400.4051 567.4045 C 398.81246 565.81183 396.2397 565.81183 394.64705 567.4045 L 392.7175 569.33406 C 393.7282 571.9681 395.19835 574.3877 397.03604 576.53166 L 400.4051 573.1626 C 401.9978 571.5699 401.9978 568.99715 400.4051 567.4045" fill="#8ca5af"/>
        </g>
        <g id="Graphic_234">
          <title>path10</title>
          <path d="M 400.4051 555.88834 C 401.9978 554.2957 401.9978 551.7229 400.4051 550.13026 C 398.81246 548.5376 396.2397 548.5376 394.64705 550.13026 L 392.16617 552.61114 C 391.0023 556.31713 390.69603 560.26815 391.3086 564.1273 C 392.01303 563.9435 392.6562 563.6066 393.20753 563.08594 Z" fill="#8ca5af"/>
        </g>
        <g id="Graphic_233">
          <title>path11</title>
          <path d="M 434.89233 561.6464 C 433.29967 563.2391 433.29967 565.81183 434.89233 567.4045 C 436.36247 568.87464 438.6902 568.9665 440.28287 567.7108 C 441.508 563.7904 441.753 559.6556 440.9873 555.6433 C 440.8648 555.7352 440.7423 555.8271 440.6504 555.919 C 440.6504 555.88834 434.89233 561.6464 434.89233 561.6464 Z" fill="#8ca5af"/>
        </g>
        <g id="Graphic_232">
          <title>path12</title>
          <path d="M 423.4068 578.89 C 421.81414 577.29736 419.2414 577.29736 417.64873 578.89 L 411.89065 584.6481 C 411.79876 584.74 411.7069 584.8625 411.615 584.985 C 415.62727 585.7507 419.7927 585.5057 423.68245 584.28056 C 424.96883 582.6879 424.87695 580.3602 423.4068 578.89" fill="#8ca5af"/>
        </g>
      </g>
    </g>
  </g>
</svg>
