<?xml version="1.0" encoding="UTF-8" standalone="no"?>
<!DOCTYPE svg PUBLIC "-//W3C//DTD SVG 1.1//EN" "http://www.w3.org/Graphics/SVG/1.1/DTD/svg11.dtd">
<svg xmlns:xl="http://www.w3.org/1999/xlink" xmlns="http://www.w3.org/2000/svg" version="1.1" xmlns:dc="http://purl.org/dc/elements/1.1/" viewBox="384 288 64 64" width="64" height="64">
  <defs/>
  <g id="Canvas_1" stroke-dasharray="none" stroke="none" stroke-opacity="1" fill-opacity="1" fill="none">
    <title>Canvas 1</title>
    <g id="Canvas_1_Layer_1">
      <title>Layer 1</title>
      <g id="Group_278">
        <g id="Graphic_260">
          <path d="M 392 288 L 440 288 C 444.4183 288 448 291.58172 448 296 L 448 344 C 448 348.41828 444.4183 352 440 352 L 392 352 C 387.5817 352 384 348.41828 384 344 L 384 296 C 384 291.58172 387.5817 288 392 288 Z" fill="white"/>
        </g>
        <g id="Graphic_29">
          <title>emacs-unread</title>
          <path d="M 392 288 L 392 288 C 387.5817 288 384 291.58172 384 296 L 384 344 C 384 348.41828 387.5817 352 392 352 L 440 352 C 444.4183 352 448 348.41828 448 344 L 448 296 C 448 291.58172 444.4183 288 440 288 Z M 428.70013 296.01454 L 428.70013 296.01454 C 429.7003 295.9942 430.5811 295.99406 431.2674 296.0214 C 443.72873 296.51817 441.2468 309.08362 433.8175 307.43495 C 405.4198 303.7292 410.16996 307.12218 431.09556 321.5051 C 422.593 322.3909 407.9818 320.82885 404.60146 327.3098 C 402.28625 331.7487 424.2512 335.9162 429.8549 337.29365 C 440.718 339.96397 436.9555 342.8843 428.34614 343.6998 C 419.487 344.53894 405.86227 343.5066 400.1955 341.9917 C 408.5014 341.73743 424.23454 341.6566 424.25294 340.66856 C 424.27003 339.74945 418.13897 339.49916 414.9427 338.80583 C 377.587 330.7026 390.74627 311.01516 419.5583 318.1955 C 413.62407 314.68543 400.8626 306.09946 404.54304 301.0769 C 405.376 299.94022 407.8495 299.27684 412.68476 300.21428 C 431.40397 303.84352 442.5264 300.5087 418.51353 296.49225 C 421.624 296.3132 425.69955 296.0756 428.70013 296.01454 Z" fill="#9b59b6"/>
        </g>
      </g>
    </g>
  </g>
</svg>
