<?xml version="1.0" encoding="UTF-8" standalone="no"?>
<!DOCTYPE svg PUBLIC "-//W3C//DTD SVG 1.1//EN" "http://www.w3.org/Graphics/SVG/1.1/DTD/svg11.dtd">
<svg xmlns:xl="http://www.w3.org/1999/xlink" xmlns="http://www.w3.org/2000/svg" version="1.1" xmlns:dc="http://purl.org/dc/elements/1.1/" viewBox="704 368 64 64" width="64" height="64">
  <defs/>
  <g id="Canvas_1" stroke-dasharray="none" stroke="none" stroke-opacity="1" fill-opacity="1" fill="none">
    <title>Canvas 1</title>
    <g id="Canvas_1_Layer_1">
      <title>Layer 1</title>
      <g id="Group_295">
        <g id="Graphic_293">
          <circle cx="736" cy="400" r="32.0000511328607" fill="white"/>
        </g>
        <g id="Group_142">
          <title>korben-read</title>
          <g id="Group_114">
            <title>layer1</title>
            <g id="Graphic_115">
              <title>path1</title>
              <path d="M 739.1214 431.6827 C 746.39015 431.01353 753.3862 427.7141 758.6096 422.49175 C 768.3642 412.73907 770.7716 398.0706 764.6419 385.73607 C 762.1541 380.72984 758.3856 376.4659 753.6636 373.31414 C 744.3439 367.0937 732.2138 366.27187 722.1361 371.1781 C 718.79826 372.80304 716.3426 374.5206 713.7239 377.06174 C 705.7594 384.79047 702.4223 395.72415 704.7029 406.6187 C 705.6915 411.3416 707.9831 416.098 711.1767 420.0557 C 712.3113 421.46184 714.59056 423.71996 716.0283 424.8624 C 722.583 430.0706 730.6744 432.46033 739.1214 431.6827 Z M 720.2165 425.1508 C 716.7576 423.0058 713.4374 419.7562 711.0881 416.21656 C 706.444 409.2195 705.0184 400.4388 707.1975 392.25346 C 710.0195 381.65304 718.6996 373.34126 729.49185 370.90506 C 732.7901 370.16053 736.9708 369.9937 740.1684 370.47897 C 750.1726 371.99727 758.4447 378.02106 762.7975 386.9576 C 765.7286 392.97545 766.5442 399.7137 765.1285 406.2168 C 764.2368 410.31283 762.44985 414.23836 759.95815 417.57496 C 758.8537 419.0539 757.0765 421.04457 756.8605 421.04457 C 756.7712 421.04457 756.5127 420.79953 756.2861 420.50003 C 756.0594 420.20053 755.6534 419.79583 755.3837 419.6007 C 754.7858 419.168 754.5887 418.80264 754.2296 417.46065 C 754.0766 416.889 753.7716 416.12656 753.55175 415.7663 C 753.013 414.88347 752.9714 414.63853 753.1453 413.3722 C 753.2946 412.2846 753.2944 412.283 752.9779 411.6361 C 752.748 411.16604 752.4318 410.7963 751.8245 410.2871 L 750.9878 409.5856 L 749.8535 409.66027 C 748.4243 409.7543 748.36115 409.5957 749.5435 408.88127 C 750.9578 408.02675 751.4823 406.92944 752.0296 403.68044 C 752.1885 402.73705 752.3692 401.7936 752.4312 401.5839 C 752.66114 400.8063 751.992 399.1129 751.3213 398.775 L 750.9568 398.5914 L 751.0141 396.96266 C 751.05065 395.9238 750.9852 394.091 750.8333 391.90197 C 750.7023 390.0144 750.5623 387.89413 750.5221 387.1903 C 750.3836 384.76116 749.7902 382.83267 748.6576 381.13055 C 747.0104 378.6549 744.2583 376.97534 740.56685 376.1929 C 738.3436 375.72164 733.3969 375.68487 731.14205 376.1228 C 727.8351 376.7651 724.7796 378.6588 722.3605 381.5653 C 721.3165 382.81965 720.6715 383.908 720.0133 385.52563 C 719.3458 387.16613 719.2487 388.2772 719.4109 392.41435 C 719.4759 394.07185 719.49636 395.5769 719.4564 395.7589 C 719.3538 396.22594 719.0307 396.4075 718.0172 396.5676 C 717.2278 396.6923 717.0875 396.755 716.70195 397.15484 C 715.5514 398.3481 715.49365 401.51095 716.56795 404.48914 C 717.0147 405.72776 717.4024 406.1429 718.675 406.7457 C 719.2669 407.02607 719.7571 407.2954 719.7643 407.34426 C 719.7716 407.3931 719.79066 407.8257 719.8067 408.3056 C 719.8307 409.02175 719.9455 409.48044 720.4473 410.865 C 720.7836 411.7928 721.1545 412.7409 721.2715 412.9719 C 721.8517 414.117 724.3168 417.0283 724.70784 417.03026 C 724.7786 417.03062 725.0707 417.2097 725.35686 417.4282 C 725.643 417.64673 726.0694 417.9058 726.3043 418.00397 C 727.0412 418.3119 727.0274 418.3335 724.78865 420.3759 C 723.4552 421.59233 722.4714 422.7601 721.4565 424.3311 C 721.0742 424.923 720.73035 425.40636 720.6925 425.4053 C 720.6546 425.4044 720.4404 425.2897 720.2165 425.1508 Z M 721.0712 406.8985 C 719.6841 406.66677 718.019 405.7633 717.4812 404.95057 C 717.1107 404.3908 716.40105 401.912 716.3 400.82504 C 716.2103 399.8592 716.43754 398.5346 716.7803 398.026 C 717.3627 397.16175 718.6045 396.8989 722.1361 396.8923 C 724.048 396.8888 724.30885 396.9134 725.135 397.17597 C 726.2169 397.5198 726.781 397.92034 726.96394 398.47466 C 727.03825 398.6998 727.20685 398.9417 727.3386 399.01223 C 728.475 399.6204 729.9061 399.1053 730.44125 397.89554 C 730.68205 397.35118 731.2817 396.87074 731.9761 396.66575 C 733.171 396.31303 735.884 395.89786 737.66714 395.79484 C 738.339 395.756 739.4886 395.64953 740.2217 395.5582 C 741.8368 395.35697 743.4713 395.3441 744.0843 395.52776 C 744.5018 395.65285 744.8227 395.9426 745.6515 396.94294 C 745.7878 397.1075 746.0496 397.2738 746.2332 397.31255 C 746.4168 397.3513 746.7895 397.4392 747.0614 397.5079 L 747.55585 397.63277 L 747.55585 398.4943 C 747.55585 399.50756 747.3941 399.8291 746.75575 400.0845 C 746.2834 400.2735 746.2534 400.35977 745.8213 402.77244 C 745.6581 403.68356 745.302 404.0407 743.7954 404.8045 C 742.4303 405.49654 741.42 405.74633 738.78506 406.0433 C 736.5016 406.30063 734.5053 406.2346 733.5634 405.8706 C 732.8064 405.57807 731.90546 404.74834 731.4097 403.88714 C 731.24315 403.5979 730.992 403.2042 730.85155 403.01224 C 730.7111 402.8203 730.43614 402.343 730.2405 401.95164 C 729.7892 401.0488 729.3055 400.6273 728.7205 400.6273 C 728.07005 400.6273 727.8216 400.9652 727.5551 402.21236 C 727.2388 403.6925 726.565 405.0874 725.8424 405.7582 C 724.7711 406.7526 722.8895 407.2023 721.0712 406.89853 Z" fill="#ecedf2"/>
            </g>
          </g>
          <g id="Graphic_139"/>
        </g>
      </g>
    </g>
  </g>
</svg>
