<?xml version="1.0" encoding="UTF-8" standalone="no"?>
<!DOCTYPE svg PUBLIC "-//W3C//DTD SVG 1.1//EN" "http://www.w3.org/Graphics/SVG/1.1/DTD/svg11.dtd">
<svg xmlns="http://www.w3.org/2000/svg" xmlns:xl="http://www.w3.org/1999/xlink" xmlns:dc="http://purl.org/dc/elements/1.1/" version="1.1" viewBox="704 368 64 64" width="64" height="64">
  <defs/>
  <g id="Canvas_1" stroke-dasharray="none" fill-opacity="1" stroke-opacity="1" stroke="none" fill="none">
    <title>Canvas 1</title>
    <g id="Canvas_1_Layer_1">
      <title>Layer 1</title>
      <g id="Group_339">
        <g id="Graphic_293">
          <circle cx="736" cy="400" r="32.0000511328607" fill="white"/>
        </g>
        <g id="Graphic_328">
          <circle cx="736" cy="400" r="32.0000511328607" fill="white"/>
        </g>
        <g id="Group_325">
          <title>layer1</title>
          <g id="Graphic_326">
            <title>path1</title>
            <path d="M 739.1214 431.85616 C 746.39015 431.187 753.3862 427.88754 758.6096 422.6652 C 768.3642 412.9125 770.7716 398.24407 764.6419 385.90953 C 762.1541 380.9033 758.3856 376.63934 753.6636 373.4876 C 744.3439 367.26717 732.2138 366.44533 722.1361 371.35154 C 718.79826 372.9765 716.3426 374.69406 713.7239 377.2352 C 705.7594 384.96392 702.4223 395.8976 704.7029 406.79215 C 705.6915 411.51507 707.9831 416.27147 711.1767 420.22916 C 712.3113 421.6353 714.59056 423.8934 716.0283 425.03585 C 722.583 430.24407 730.6744 432.6338 739.1214 431.85616 Z M 720.2165 425.32426 C 716.7576 423.17924 713.4374 419.92963 711.0881 416.39 C 706.444 409.39293 705.0184 400.61225 707.1975 392.4269 C 710.0195 381.8265 718.6996 373.5147 729.49185 371.0785 C 732.7901 370.334 736.9708 370.16714 740.1684 370.65243 C 750.1726 372.17073 758.4447 378.1945 762.7975 387.13107 C 765.7286 393.1489 766.5442 399.88715 765.1285 406.39024 C 764.2368 410.4863 762.44985 414.4118 759.95815 417.7484 C 758.8537 419.2274 757.0765 421.21803 756.8605 421.21803 C 756.7712 421.21803 756.5127 420.973 756.2861 420.6735 C 756.0594 420.374 755.6534 419.9693 755.3837 419.77416 C 754.7858 419.34143 754.5887 418.9761 754.2296 417.6341 C 754.0766 417.06247 753.7716 416.3 753.55175 415.9398 C 753.013 415.05693 752.9714 414.812 753.1453 413.54564 C 753.2946 412.45807 753.2944 412.45644 752.9779 411.80954 C 752.748 411.3395 752.4318 410.96975 751.8245 410.46055 L 750.9878 409.7591 L 749.8535 409.8337 C 748.4243 409.92777 748.36115 409.76913 749.5435 409.05472 C 750.9578 408.2002 751.4823 407.1029 752.0296 403.8539 C 752.1885 402.9105 752.3692 401.96705 752.4312 401.75733 C 752.66114 400.97975 751.992 399.28635 751.3213 398.94848 L 750.9568 398.76484 L 751.0141 397.1361 C 751.05065 396.09724 750.9852 394.26447 750.8333 392.0754 C 750.7023 390.18784 750.5623 388.0676 750.5221 387.36374 C 750.3836 384.9346 749.7902 383.00613 748.6576 381.304 C 747.0104 378.82834 744.2583 377.1488 740.56685 376.36634 C 738.3436 375.8951 733.3969 375.85832 731.14205 376.29628 C 727.8351 376.93858 724.7796 378.83226 722.3605 381.73876 C 721.3165 382.9931 720.6715 384.08146 720.0133 385.6991 C 719.3458 387.3396 719.2487 388.45065 719.4109 392.5878 C 719.4759 394.2453 719.49636 395.75036 719.4564 395.93237 C 719.3538 396.3994 719.0307 396.58097 718.0172 396.74107 C 717.2278 396.86577 717.0875 396.92844 716.70195 397.3283 C 715.5514 398.5216 715.49365 401.6844 716.56795 404.6626 C 717.0147 405.9012 717.4024 406.31634 718.675 406.91917 C 719.2669 407.19953 719.7571 407.46887 719.7643 407.5177 C 719.7716 407.56655 719.79066 407.99915 719.8067 408.47905 C 719.8307 409.1952 719.9455 409.6539 720.4473 411.03847 C 720.7836 411.96627 721.1545 412.91436 721.2715 413.14535 C 721.8517 414.2905 724.3168 417.20173 724.70784 417.2037 C 724.7786 417.2041 725.0707 417.38316 725.35686 417.60167 C 725.643 417.8202 726.0694 418.07927 726.3043 418.1774 C 727.0412 418.48534 727.0274 418.50696 724.78865 420.54934 C 723.4552 421.7658 722.4714 422.93354 721.4565 424.50457 C 721.0742 425.09644 720.73035 425.5798 720.6925 425.57873 C 720.6546 425.57785 720.4404 425.46314 720.2165 425.32426 Z M 721.0712 407.07197 C 719.6841 406.84022 718.019 405.93677 717.4812 405.12403 C 717.1107 404.56427 716.40105 402.08545 716.3 400.9985 C 716.2103 400.0327 716.43754 398.70804 716.7803 398.19945 C 717.3627 397.3352 718.6045 397.07235 722.1361 397.06577 C 724.048 397.06225 724.30885 397.08687 725.135 397.34943 C 726.2169 397.69325 726.781 398.0938 726.96394 398.6481 C 727.03825 398.87326 727.20685 399.11517 727.3386 399.1857 C 728.475 399.79385 729.9061 399.27876 730.44125 398.069 C 730.68205 397.52463 731.2817 397.0442 731.9761 396.8392 C 733.171 396.4865 735.884 396.0713 737.66714 395.9683 C 738.339 395.92947 739.4886 395.823 740.2217 395.73164 C 741.8368 395.5304 743.4713 395.51754 744.0843 395.7012 C 744.5018 395.8263 744.8227 396.11607 745.6515 397.1164 C 745.7878 397.28095 746.0496 397.44727 746.2332 397.486 C 746.4168 397.52475 746.7895 397.61264 747.0614 397.68133 L 747.55585 397.80623 L 747.55585 398.66773 C 747.55585 399.681 747.3941 400.00257 746.75575 400.25797 C 746.2834 400.44697 746.2534 400.53323 745.8213 402.9459 C 745.6581 403.857 745.302 404.2142 743.7954 404.97794 C 742.4303 405.67 741.42 405.9198 738.78506 406.21674 C 736.5016 406.4741 734.5053 406.40807 733.5634 406.04407 C 732.8064 405.75153 731.90546 404.9218 731.4097 404.0606 C 731.24315 403.77136 730.992 403.37765 730.85155 403.1857 C 730.7111 402.99374 730.43614 402.51647 730.2405 402.1251 C 729.7892 401.22225 729.3055 400.80077 728.7205 400.80077 C 728.07005 400.80077 727.8216 401.13867 727.5551 402.3858 C 727.2388 403.866 726.565 405.26085 725.8424 405.9317 C 724.7711 406.92606 722.8895 407.37577 721.0712 407.072 Z" fill="#8ca5ae"/>
          </g>
        </g>
      </g>
    </g>
  </g>
</svg>
