<?xml version="1.0" encoding="UTF-8" standalone="no"?>
<!DOCTYPE svg PUBLIC "-//W3C//DTD SVG 1.1//EN" "http://www.w3.org/Graphics/SVG/1.1/DTD/svg11.dtd">
<svg xmlns="http://www.w3.org/2000/svg" xmlns:xl="http://www.w3.org/1999/xlink" xmlns:dc="http://purl.org/dc/elements/1.1/" version="1.1" viewBox="544 528 64 64" width="64" height="64">
  <defs/>
  <g id="Canvas_1" stroke-dasharray="none" fill-opacity="1" stroke-opacity="1" stroke="none" fill="none">
    <title>Canvas 1</title>
    <g id="Canvas_1_Layer_1">
      <title>Layer 1</title>
      <g id="Graphic_317">
        <path d="M 552 528 L 600 528 C 604.4183 528 608 531.5817 608 536 L 608 584 C 608 588.4183 604.4183 592 600 592 L 552 592 C 547.5817 592 544 588.4183 544 584 L 544 536 C 544 531.5817 547.5817 528 552 528 Z" fill="white"/>
      </g>
      <g id="Graphic_316">
        <path d="M 552 528 L 552 528 C 547.5817 528 544 531.5817 544 536 L 544 584 C 544 588.4183 547.5817 592 552 592 L 600 592 C 604.4183 592 608 588.4183 608 584 L 608 536 C 608 531.5817 604.4183 528 600 528 Z M 564.77 573.84496 L 564.77 573.84496 C 564.77 574.4565 564.80775 575.03884 564.8832 575.5834 C 565.6999 581.7833 571.03085 582.1547 576.0806 582.3279 C 581.1774 582.5023 585.71575 581.07125 585.71575 581.07125 L 585.9251 585.679 C 585.9251 585.679 582.3601 587.59335 576.0094 587.94545 C 572.5074 588.13794 568.15916 587.85735 563.0946 586.51684 C 552.1105 583.60955 550.2215 571.90104 549.9325 560.02085 C 549.8444 556.49354 549.8987 553.1675 549.8987 550.3857 C 549.8987 538.2376 557.8581 534.6768 557.8581 534.6768 C 561.8715 532.8336 568.75806 532.05853 575.9174 532 L 576.09326 532 C 583.2526 532.05853 590.14366 532.8336 594.1567 534.6768 C 594.1567 534.6768 602.1159 538.2376 602.1159 550.3857 C 602.1159 550.3857 602.21574 559.34863 601.0059 565.5714 C 600.238 569.52174 594.1287 573.84496 587.1121 574.6828 C 583.4532 575.1194 579.8508 575.5207 576.0094 575.3445 C 569.72715 575.05664 564.77 573.84496 564.77 573.84496 Z M 592.7275 551.3281 L 592.7275 551.3281 L 592.7275 551.3281 C 592.7275 548.32186 591.9621 545.9329 590.42486 544.1655 C 588.83906 542.39806 586.7627 541.492 584.1855 541.492 C 581.20305 541.492 578.94474 542.6382 577.4519 544.9309 L 576.00003 547.36423 L 574.5485 544.9309 C 573.0553 542.6382 570.797 541.492 567.8149 541.492 C 565.2374 541.492 563.161 542.39806 561.5755 544.1655 C 560.038 545.9329 559.27255 548.32186 559.27255 551.3281 L 559.27255 566.03746 L 565.1001 566.03746 L 565.1001 551.7605 C 565.1001 548.7509 566.3664 547.22333 568.89926 547.22333 C 571.69974 547.22333 573.1036 549.0354 573.1036 552.61854 L 573.1036 560.43317 L 578.8968 560.43317 L 578.8968 552.61854 C 578.8968 549.0354 580.3003 547.22333 583.1008 547.22333 C 585.6337 547.22333 586.89996 548.7509 586.89996 551.7605 L 586.89996 566.03746 L 592.7275 566.03746 Z" fill="#8ba5ad"/>
      </g>
    </g>
  </g>
</svg>
