<?xml version="1.0" encoding="UTF-8" standalone="no"?>
<!DOCTYPE svg PUBLIC "-//W3C//DTD SVG 1.1//EN" "http://www.w3.org/Graphics/SVG/1.1/DTD/svg11.dtd">
<svg xmlns="http://www.w3.org/2000/svg" xmlns:xl="http://www.w3.org/1999/xlink" xmlns:dc="http://purl.org/dc/elements/1.1/" version="1.1" viewBox="544 448 64 64" width="64" height="64">
  <defs/>
  <g id="Canvas_1" stroke-dasharray="none" fill-opacity="1" stroke-opacity="1" stroke="none" fill="none">
    <title>Canvas 1</title>
    <g id="Canvas_1_Layer_1">
      <title>Layer 1</title>
      <g id="Group_318">
        <g id="Graphic_314">
          <path d="M 552 448 L 600 448 C 604.4183 448 608 451.5817 608 456 L 608 504 C 608 508.4183 604.4183 512 600 512 L 552 512 C 547.5817 512 544 508.4183 544 504 L 544 456 C 544 451.5817 547.5817 448 552 448 Z" fill="white"/>
        </g>
        <g id="Graphic_315">
          <path d="M 552 448 L 552 448 C 547.5817 448 544 451.5817 544 456 L 544 504 C 544 508.4183 547.5817 512 552 512 L 600 512 C 604.4183 512 608 508.4183 608 504 L 608 456 C 608 451.5817 604.4183 448 600 448 Z M 564.77 493.84496 L 564.77 493.84496 C 564.77 494.45653 564.80775 495.03884 564.8832 495.5834 C 565.6999 501.7833 571.03085 502.1547 576.0806 502.3279 C 581.1774 502.5023 585.71575 501.07125 585.71575 501.07125 L 585.9251 505.679 C 585.9251 505.679 582.3601 507.59335 576.0094 507.94545 C 572.5074 508.13794 568.15916 507.85735 563.0946 506.51684 C 552.1105 503.60955 550.2215 491.90104 549.9325 480.02085 C 549.8444 476.49354 549.8987 473.16747 549.8987 470.3857 C 549.8987 458.2376 557.8581 454.6768 557.8581 454.6768 C 561.8715 452.83363 568.75806 452.05853 575.9174 452 L 576.09326 452 C 583.2526 452.05853 590.14366 452.83363 594.1567 454.6768 C 594.1567 454.6768 602.1159 458.2376 602.1159 470.3857 C 602.1159 470.3857 602.21574 479.34863 601.0059 485.57143 C 600.238 489.52174 594.1287 493.84496 587.1121 494.6828 C 583.4532 495.1194 579.8508 495.52067 576.0094 495.34447 C 569.72715 495.05664 564.77 493.84496 564.77 493.84496 Z M 592.7275 471.32813 L 592.7275 471.3281 L 592.7275 471.3281 C 592.7275 468.32186 591.9621 465.9329 590.42486 464.1655 C 588.83906 462.39806 586.7627 461.492 584.1855 461.492 C 581.20305 461.492 578.94474 462.6382 577.4519 464.93093 L 576.00003 467.36423 L 574.5485 464.93093 C 573.0553 462.6382 570.797 461.492 567.8149 461.492 C 565.2374 461.492 563.161 462.39806 561.5755 464.1655 C 560.038 465.9329 559.27255 468.32186 559.27255 471.3281 L 559.27255 486.03746 L 565.1001 486.03746 L 565.1001 471.76047 C 565.1001 468.7509 566.3664 467.22333 568.89926 467.22333 C 571.69974 467.22333 573.1036 469.0354 573.1036 472.61854 L 573.1036 480.43317 L 578.8968 480.43317 L 578.8968 472.61854 C 578.8968 469.0354 580.3003 467.22333 583.1008 467.22333 C 585.6337 467.22333 586.89996 468.7509 586.89996 471.76047 L 586.89996 486.03746 L 592.7275 486.03746 Z" fill="#2c90d9"/>
        </g>
      </g>
    </g>
  </g>
</svg>
