<?xml version="1.0" encoding="UTF-8" standalone="no"?>
<!DOCTYPE svg PUBLIC "-//W3C//DTD SVG 1.1//EN" "http://www.w3.org/Graphics/SVG/1.1/DTD/svg11.dtd">
<svg xmlns="http://www.w3.org/2000/svg" xmlns:xl="http://www.w3.org/1999/xlink" xmlns:dc="http://purl.org/dc/elements/1.1/" version="1.1" viewBox="624 448 64 64" width="64" height="64">
  <defs/>
  <g id="Canvas_1" stroke-dasharray="none" fill-opacity="1" stroke-opacity="1" stroke="none" fill="none">
    <title>Canvas 1</title>
    <g id="Canvas_1_Layer_1">
      <title>Layer 1</title>
      <g id="Group_369">
        <g id="Graphic_368">
          <path d="M 632 448 L 680 448 C 684.4183 448 688 451.5817 688 456 L 688 504 C 688 508.4183 684.4183 512 680 512 L 632 512 C 627.5817 512 624 508.4183 624 504 L 624 456 C 624 451.5817 627.5817 448 632 448 Z" fill="white"/>
        </g>
        <g id="Graphic_360">
          <path d="M 632 448 C 627.5817 448 624 451.5817 624 456 L 624 504 C 624 508.4183 627.5817 512 632 512 L 680 512 C 684.4183 512 688 508.4183 688 504 L 688 456 C 688 451.5817 684.4183 448 680 448 L 632 448 Z M 669.9318 471.2319 L 669.9318 471.2319 C 674.7654 478.9104 672.45225 489.1006 664.7743 493.9364 C 662.1512 495.5896 659.1264 496.463 656.0349 496.463 C 650.32626 496.463 645.1119 493.58843 642.0832 488.7765 C 637.2516 481.091 639.5667 470.9078 647.2447 466.068 C 649.8688 464.4148 652.8876 463.5394 655.9811 463.5394 C 657.3624 463.5394 658.7118 463.71886 660.0104 464.0389 L 660.0164 464.02596 C 660.03534 464.03394 660.0573 464.0469 660.0802 464.0559 C 664.1215 465.0779 667.6485 467.6005 669.9318 471.2319 Z M 663.60425 492.07686 C 665.151 491.0997 666.8423 489.5702 667.1552 488.5781 C 667.23294 488.35276 667.2788 488.1254 667.32065 487.8582 C 667.3615 487.60295 667.3864 487.3238 667.3904 487.03063 C 667.4004 486.72253 667.3904 486.41045 667.3575 486.0884 C 667.32065 485.75636 667.2718 485.41835 667.20404 485.0664 C 667.14524 484.7922 667.0715 484.50103 666.9878 484.21687 C 666.6649 484.45716 666.328 484.70244 665.96424 484.93377 C 665.5716 485.199 665.153 485.44627 664.7314 485.6806 C 664.30985 485.9209 663.8763 486.1442 663.4298 486.3666 C 662.9913 486.57696 662.5379 486.77937 662.0834 486.9698 C 660.6891 490.16147 659.0517 492.5335 657.0893 494.1897 C 659.3945 494.0172 661.6339 493.31523 663.60425 492.07686 Z M 644.0216 487.71263 C 645.2385 489.6061 646.856 491.1356 648.7167 492.2424 C 648.2224 491.26324 647.8776 490.13654 647.6314 488.9161 C 647.3623 488.86426 647.0912 488.8244 646.8301 488.75957 C 646.4394 488.66883 646.0458 488.5492 645.67204 488.4325 C 645.2774 488.3019 644.9186 488.1643 644.5658 487.9998 C 644.37145 487.91105 644.203 487.80935 644.0216 487.71263 Z M 649.515 468.6654 C 648.1417 468.5936 646.8889 469.0074 646.0458 469.81203 C 642.30844 473.41947 640.954 478.64817 642.2018 483.54084 L 642.2058 483.54084 C 642.2506 483.7602 642.62736 484.7792 643.10175 485.2638 C 643.2562 485.4263 643.4386 485.6028 643.6489 485.7743 C 643.8482 485.93583 644.0705 486.09437 644.3226 486.23994 C 644.5897 486.41244 644.8648 486.55103 645.1568 486.68564 C 645.4707 486.8292 645.7817 486.95286 646.1185 487.06353 C 646.4474 487.16623 646.8042 487.26993 647.166 487.3577 C 647.2417 487.3786 647.32145 487.3866 647.3992 487.4075 C 647.2457 486.00264 647.2128 484.509 647.3633 482.9077 C 647.6842 479.5685 648.5154 476.40473 649.82795 473.5052 C 650.59335 471.8441 651.42055 470.42224 652.30455 469.2018 C 652.01254 469.1081 651.7225 469.01337 651.4385 468.94656 C 651.09864 468.8698 650.7608 468.798 650.4399 468.7561 C 650.115 468.7013 649.807 468.68034 649.515 468.6654 Z M 668.0751 472.39946 C 666.93595 470.58876 665.4241 469.11706 663.68995 468.0073 C 664.54705 470.35245 664.8779 473.25994 664.6298 476.74673 C 664.852 477.04187 665.07825 477.331 665.2895 477.63114 C 665.5656 478.017 665.8287 478.41485 666.07786 478.8157 C 666.323 479.2095 666.5582 479.60536 666.7815 480.0072 C 667.0037 480.406 667.209 480.80884 667.3954 481.21266 C 667.4831 481.3991 667.55485 481.59255 667.6366 481.782 C 667.7492 481.6733 667.8688 481.5666 667.9774 481.45994 C 668.1987 481.21266 668.4229 480.9594 668.6272 480.69916 C 668.8365 480.43494 669.0149 480.1817 669.17835 479.9304 C 669.32784 479.68214 669.4694 479.43486 669.583 479.1886 C 669.6956 478.9523 669.7813 478.709 669.861 478.4727 C 670.0364 477.9801 670.0564 477.45765 669.94674 476.95014 C 669.861 476.5593 669.7325 476.1794 669.61786 475.7945 C 669.50325 475.3987 669.3767 475.0118 669.2192 474.6299 C 668.8963 473.8552 668.5206 473.1064 668.0751 472.39946 Z M 655.3851 492.75886 C 656.7973 491.6511 658.0371 490.0877 659.1434 488.01575 C 658.70884 488.14836 658.2793 488.271 657.8428 488.3787 C 657.3634 488.49534 656.87904 488.605 656.3977 488.69675 C 655.9143 488.7905 655.43295 488.8812 654.9556 488.948 C 654.4662 489.0138 653.9819 489.07963 653.5045 489.11254 C 653.04106 489.1614 652.57065 489.1893 652.09726 489.20427 C 651.7933 489.2212 651.4943 489.2252 651.1883 489.2252 C 651.0319 489.2252 650.8724 489.2232 650.71096 489.2212 C 650.2515 489.21125 649.805 489.1883 649.3685 489.1524 C 649.29476 489.14644 649.226 489.13647 649.14925 489.1265 C 649.3595 490.0189 649.65254 490.8953 650.0771 491.70594 C 650.68604 492.8576 651.59496 493.6373 652.5069 493.79284 C 653.3141 493.9175 654.3765 493.5336 655.3851 492.75886 Z M 648.82535 483.0423 C 648.7028 484.36443 648.6679 485.99167 648.88216 487.6518 C 649.0805 487.67275 649.2788 487.70266 649.4871 487.7206 C 649.8997 487.7565 650.3203 487.77545 650.7488 487.7854 C 651.1784 487.7924 651.6029 487.7904 652.03945 487.77146 C 652.4949 487.7575 652.9334 487.7286 653.3799 487.6837 C 653.8453 487.6488 654.2958 487.592 654.7493 487.53017 C 655.2047 487.46237 655.66616 487.3806 656.1286 487.29187 C 656.58205 487.2021 657.0405 487.09544 657.5019 486.98476 C 657.9614 486.8731 658.41285 486.7395 658.8663 486.6029 C 659.251 486.4902 659.6297 486.3616 660.0104 486.224 C 660.1131 485.99267 660.21374 485.7703 660.3124 485.538 C 661.4306 482.795 662.1482 479.78085 662.4392 476.5872 C 662.4442 476.50544 662.4392 476.42766 662.4482 476.3429 C 662.4282 476.32596 662.4163 476.306 662.39534 476.2881 C 662.0914 475.9361 661.7705 475.5911 661.44656 475.2531 C 661.1197 474.9211 660.7818 474.58406 660.433 474.255 C 660.09116 473.93297 659.73636 473.6199 659.3746 473.31976 C 659.0168 473.0057 658.64705 472.7165 658.2723 472.4264 C 657.90756 472.1522 657.5209 471.878 657.1342 471.61575 C 656.76045 471.3665 656.3698 471.1122 655.9781 470.8889 C 655.5854 470.65257 655.1918 470.4332 654.7941 470.2348 C 654.42736 470.04734 654.07754 469.8908 653.7357 469.73825 C 652.8158 470.9437 651.9597 472.39447 651.1654 474.1184 C 649.9216 476.8684 649.1333 479.8726 648.82535 483.0423 Z M 664.3647 478.8426 C 664.0418 481.0192 663.5195 483.09016 662.8189 485.0544 C 663.2285 484.852 663.6252 484.6426 664.01884 484.42426 C 664.4115 484.2009 664.8012 483.9686 665.1749 483.7283 C 665.55065 483.481 665.90245 483.22876 666.2323 482.9825 C 666.326 482.9137 666.40575 482.8389 666.4974 482.7711 C 666.3689 482.457 666.2373 482.14094 666.0878 481.8199 C 665.9144 481.437 665.7231 481.07307 665.52075 480.70315 C 665.3105 480.32227 665.0862 479.94836 664.856 479.57246 C 664.7015 479.3282 664.5301 479.0839 664.3647 478.8426 Z M 659.5281 466.18564 C 659.50415 466.1757 659.4772 466.1757 659.4483 466.1637 C 658.6301 465.9972 657.5059 466.3123 656.4116 467.0631 L 656.4116 467.0591 C 655.81565 467.4978 655.2486 468.0163 654.6984 468.5996 C 654.9476 468.71524 655.1918 468.8219 655.4429 468.95254 C 655.8625 469.15994 656.28606 469.39325 656.70364 469.64053 C 657.1222 469.8878 657.5348 470.15004 657.93746 470.42125 C 658.35006 470.69843 658.7507 470.9846 659.1444 471.27774 C 659.542 471.58484 659.9297 471.89593 660.3124 472.22 C 660.6891 472.53705 661.0619 472.8681 661.4236 473.2081 C 661.7834 473.5501 662.1352 473.89807 662.47906 474.24605 C 662.491 474.26 662.496 474.27 662.51195 474.28593 C 662.494 471.82215 662.1352 469.7522 661.41766 468.13195 C 660.9323 467.085 660.2576 466.396 659.5281 466.18564 Z M 655.5924 465.84364 C 655.64024 465.80576 655.6931 465.7888 655.7419 465.7569 C 653.63405 465.7898 651.58 466.3033 649.6974 467.23657 C 650.0113 467.2525 650.32626 467.27346 650.6571 467.3293 C 651.00994 467.37915 651.3867 467.45393 651.77236 467.54367 C 652.16004 467.6404 652.5547 467.75804 652.95435 467.89165 C 653.053 467.92057 653.1517 467.96743 653.24835 468.0033 C 653.98386 467.1558 654.7612 466.4349 655.5904 465.84165 L 655.5924 465.84364 Z M 668.7907 485.9418 L 668.7907 485.9418 C 668.8006 486.0485 668.79664 486.1482 668.8026 486.2559 C 669.6119 484.5898 670.08926 482.78805 670.2148 480.9524 C 670.0683 481.1648 669.9278 481.38017 669.7564 481.59155 C 669.5401 481.8757 669.285 482.1609 669.0149 482.453 C 668.7528 482.72124 668.4757 482.9835 668.1937 483.2407 C 668.23255 483.3594 668.2814 483.479 668.3183 483.5997 C 668.4349 483.9995 668.5325 484.39435 668.6143 484.77124 C 668.696 485.18104 668.7528 485.5679 668.7907 485.9418 Z M 671.9061 466.28535 L 671.9061 466.28535 C 670.0972 465.725 669.0837 463.7996 669.6398 461.9949 C 670.2029 460.1782 672.12934 459.17217 673.9342 459.73153 C 675.7451 460.2939 676.75865 462.2123 676.19656 464.02896 C 675.63546 465.8327 673.714 466.8447 671.9061 466.28535 Z M 679.9219 483.36336 L 679.9219 483.36336 C 679.6439 484.26173 678.6811 484.77124 677.7762 484.49206 C 676.87625 484.2139 676.37395 483.2477 676.654 482.35033 C 676.93306 481.445 677.8918 480.93746 678.79275 481.21366 C 679.6977 481.49583 680.204 482.458 679.9219 483.36336 Z M 661.4745 459.35364 L 661.4745 459.35364 C 660.56654 459.07047 660.06325 458.1073 660.3433 457.2069 C 660.6194 456.30756 661.5841 455.79605 662.492 456.07723 C 663.39794 456.3574 663.89925 457.3256 663.6232 458.22395 C 663.3441 459.1253 662.3834 459.6338 661.4745 459.35364 Z M 637.8077 489.1006 L 637.8077 489.1006 C 638.7037 489.37776 639.2149 490.34293 638.9309 491.25726 C 638.6538 492.1586 637.6921 492.6532 636.79115 492.377 C 635.8892 492.0958 635.37594 491.1416 635.656 490.23924 C 635.93505 489.3289 636.9038 488.8214 637.8077 489.1006 Z M 667.70136 497.06626 L 667.70136 497.06626 C 668.8734 497.4292 669.53016 498.6855 669.1704 499.8541 C 668.8056 501.02866 667.55386 501.6887 666.3838 501.3278 C 665.2078 500.96285 664.552 499.7115 664.9158 498.53595 C 665.2776 497.3674 666.5283 496.7013 667.70136 497.06626 Z M 645.2485 463.41376 L 645.2485 463.41376 C 644.802 464.85853 643.2602 465.67115 641.8101 465.22147 C 640.367 464.7738 639.5558 463.2313 640.00525 461.7865 C 640.4527 460.33776 641.9925 459.5321 643.4346 459.9778 C 644.8827 460.4305 645.69695 461.965 645.2485 463.41376 Z M 651.06675 498.63965 L 651.06675 498.63965 C 652.51185 499.08634 653.3141 500.61786 652.86366 502.0676 C 652.4162 503.5104 650.8864 504.323 649.44325 503.8783 C 647.9952 503.42863 647.1929 501.88814 647.6384 500.44935 C 648.08785 498.9976 649.6167 498.18897 651.06675 498.63965 Z M 634.66934 472.12326 L 634.66934 472.12326 C 635.7527 472.4583 636.3606 473.6119 636.02275 474.7037 C 635.6879 475.78156 634.5358 476.3888 633.4515 476.05376 C 632.36615 475.71774 631.7582 474.5621 632.0911 473.4833 C 632.4299 472.3935 633.583 471.78625 634.66934 472.12326 Z M 652.9195 481.69624 L 652.9195 481.69624 C 651.9747 481.69624 651.2023 480.9325 651.2023 479.98924 C 651.2023 479.043 651.9727 478.2693 652.9195 478.2663 C 653.8653 478.2693 654.63266 479.039 654.63266 479.98525 C 654.63266 480.9325 653.8653 481.69624 652.9195 481.69624 Z" fill="#19529b"/>
        </g>
      </g>
    </g>
  </g>
</svg>
