<?xml version="1.0" encoding="UTF-8" standalone="no"?>
<!DOCTYPE svg PUBLIC "-//W3C//DTD SVG 1.1//EN" "http://www.w3.org/Graphics/SVG/1.1/DTD/svg11.dtd">
<svg xmlns="http://www.w3.org/2000/svg" xmlns:xl="http://www.w3.org/1999/xlink" xmlns:dc="http://purl.org/dc/elements/1.1/" version="1.1" viewBox="624 528 64 64" width="64" height="64">
  <defs/>
  <g id="Canvas_1" stroke-dasharray="none" fill-opacity="1" stroke-opacity="1" stroke="none" fill="none">
    <title>Canvas 1</title>
    <g id="Canvas_1_Layer_1">
      <title>Layer 1</title>
      <g id="Group_370">
        <g id="Graphic_365">
          <path d="M 632 528 L 680 528 C 684.4183 528 688 531.5817 688 536 L 688 584 C 688 588.4183 684.4183 592 680 592 L 632 592 C 627.5817 592 624 588.4183 624 584 L 624 536 C 624 531.5817 627.5817 528 632 528 Z" fill="white"/>
        </g>
        <g id="Graphic_361">
          <path d="M 632 528 C 627.5817 528 624 531.5817 624 536 L 624 584 C 624 588.4183 627.5817 592 632 592 L 680 592 C 684.4183 592 688 588.4183 688 584 L 688 536 C 688 531.5817 684.4183 528 680 528 L 632 528 Z M 669.9318 551.2319 L 669.9318 551.2319 C 674.7654 558.9104 672.45225 569.1006 664.7743 573.9364 C 662.1512 575.5896 659.1264 576.463 656.0349 576.463 C 650.32626 576.463 645.1119 573.58843 642.0832 568.7765 C 637.2516 561.091 639.5667 550.9078 647.2447 546.068 C 649.8688 544.4148 652.8876 543.5394 655.9811 543.5394 C 657.3624 543.5394 658.7118 543.71886 660.0104 544.0389 L 660.0164 544.02596 C 660.03534 544.03394 660.0573 544.0469 660.0802 544.0559 C 664.1215 545.0779 667.6485 547.6005 669.9318 551.2319 Z M 663.60425 572.07686 C 665.151 571.0997 666.8423 569.5702 667.1552 568.5781 C 667.23294 568.35276 667.2788 568.1254 667.32065 567.8582 C 667.3615 567.60295 667.3864 567.3238 667.3904 567.0306 C 667.4004 566.7225 667.3904 566.41045 667.3575 566.0884 C 667.32065 565.75636 667.2718 565.41835 667.20404 565.0664 C 667.14524 564.7922 667.0715 564.50103 666.9878 564.21687 C 666.6649 564.45716 666.328 564.70244 665.96424 564.9338 C 665.5716 565.199 665.153 565.4463 664.7314 565.6806 C 664.30985 565.9209 663.8763 566.1442 663.4298 566.3666 C 662.9913 566.57696 662.5379 566.77937 662.0834 566.9698 C 660.6891 570.16147 659.0517 572.5335 657.0893 574.1897 C 659.3945 574.0172 661.6339 573.31523 663.60425 572.07686 Z M 644.0216 567.7126 C 645.2385 569.6061 646.856 571.1356 648.7167 572.2424 C 648.2224 571.26324 647.8776 570.13654 647.6314 568.9161 C 647.3623 568.86426 647.0912 568.8244 646.8301 568.7596 C 646.4394 568.66883 646.0458 568.5492 645.67204 568.4325 C 645.2774 568.3019 644.9186 568.1643 644.5658 567.9998 C 644.37145 567.91105 644.203 567.80935 644.0216 567.7126 Z M 649.515 548.6654 C 648.1417 548.5936 646.8889 549.0074 646.0458 549.812 C 642.30844 553.4195 640.954 558.64817 642.2018 563.54084 L 642.2058 563.54084 C 642.2506 563.7602 642.62736 564.7792 643.10175 565.2638 C 643.2562 565.4263 643.4386 565.6028 643.6489 565.7743 C 643.8482 565.93583 644.0705 566.0944 644.3226 566.23994 C 644.5897 566.41244 644.8648 566.551 645.1568 566.68564 C 645.4707 566.8292 645.7817 566.95286 646.1185 567.0635 C 646.4474 567.1662 646.8042 567.2699 647.166 567.3577 C 647.2417 567.3786 647.32145 567.3866 647.3992 567.4075 C 647.2457 566.00264 647.2128 564.509 647.3633 562.9077 C 647.6842 559.5685 648.5154 556.4047 649.82795 553.5052 C 650.59335 551.8441 651.42055 550.42224 652.30455 549.2018 C 652.01254 549.1081 651.7225 549.01337 651.4385 548.94656 C 651.09864 548.8698 650.7608 548.798 650.4399 548.7561 C 650.115 548.7013 649.807 548.68034 649.515 548.6654 Z M 668.0751 552.39946 C 666.93595 550.58876 665.4241 549.11706 663.68995 548.0073 C 664.54705 550.35245 664.8779 553.25994 664.6298 556.7467 C 664.852 557.0419 665.07825 557.331 665.2895 557.63114 C 665.5656 558.017 665.8287 558.41485 666.07786 558.8157 C 666.323 559.2095 666.5582 559.60536 666.7815 560.0072 C 667.0037 560.406 667.209 560.80884 667.3954 561.21266 C 667.4831 561.3991 667.55485 561.59255 667.6366 561.782 C 667.7492 561.6733 667.8688 561.5666 667.9774 561.45994 C 668.1987 561.21266 668.4229 560.9594 668.6272 560.69916 C 668.8365 560.43494 669.0149 560.1817 669.17835 559.9304 C 669.32784 559.68214 669.4694 559.43486 669.583 559.1886 C 669.6956 558.9523 669.7813 558.709 669.861 558.4727 C 670.0364 557.9801 670.0564 557.45765 669.94674 556.95014 C 669.861 556.5593 669.7325 556.1794 669.61786 555.7945 C 669.50325 555.3987 669.3767 555.0118 669.2192 554.6299 C 668.8963 553.8552 668.5206 553.1064 668.0751 552.39946 Z M 655.3851 572.75886 C 656.7973 571.6511 658.0371 570.0877 659.1434 568.01575 C 658.70884 568.14836 658.2793 568.271 657.8428 568.3787 C 657.3634 568.49534 656.87904 568.605 656.3977 568.69675 C 655.9143 568.7905 655.43295 568.8812 654.9556 568.948 C 654.4662 569.0138 653.9819 569.0796 653.5045 569.11254 C 653.04106 569.1614 652.57065 569.1893 652.09726 569.2043 C 651.7933 569.2212 651.4943 569.2252 651.1883 569.2252 C 651.0319 569.2252 650.8724 569.2232 650.71096 569.2212 C 650.2515 569.21125 649.805 569.1883 649.3685 569.1524 C 649.29476 569.14644 649.226 569.13647 649.14925 569.1265 C 649.3595 570.0189 649.65254 570.8953 650.0771 571.70594 C 650.68604 572.8576 651.59496 573.6373 652.5069 573.79284 C 653.3141 573.9175 654.3765 573.5336 655.3851 572.75886 Z M 648.82535 563.0423 C 648.7028 564.36443 648.6679 565.9917 648.88216 567.6518 C 649.0805 567.67275 649.2788 567.70266 649.4871 567.7206 C 649.8997 567.7565 650.3203 567.77545 650.7488 567.7854 C 651.1784 567.7924 651.6029 567.7904 652.03945 567.77146 C 652.4949 567.7575 652.9334 567.7286 653.3799 567.6837 C 653.8453 567.6488 654.2958 567.592 654.7493 567.5302 C 655.2047 567.46237 655.66616 567.3806 656.1286 567.29187 C 656.58205 567.2021 657.0405 567.09544 657.5019 566.98476 C 657.9614 566.8731 658.41285 566.7395 658.8663 566.6029 C 659.251 566.4902 659.6297 566.3616 660.0104 566.224 C 660.1131 565.9927 660.21374 565.7703 660.3124 565.538 C 661.4306 562.795 662.1482 559.78085 662.4392 556.5872 C 662.4442 556.50544 662.4392 556.42766 662.4482 556.3429 C 662.4282 556.32596 662.4163 556.306 662.39534 556.2881 C 662.0914 555.9361 661.7705 555.5911 661.44656 555.2531 C 661.1197 554.9211 660.7818 554.58406 660.433 554.255 C 660.09116 553.93297 659.73636 553.6199 659.3746 553.31976 C 659.0168 553.0057 658.64705 552.7165 658.2723 552.4264 C 657.90756 552.1522 657.5209 551.878 657.1342 551.61575 C 656.76045 551.3665 656.3698 551.1122 655.9781 550.8889 C 655.5854 550.6526 655.1918 550.4332 654.7941 550.2348 C 654.42736 550.04734 654.07754 549.8908 653.7357 549.73825 C 652.8158 550.9437 651.9597 552.3945 651.1654 554.1184 C 649.9216 556.8684 649.1333 559.8726 648.82535 563.0423 Z M 664.3647 558.8426 C 664.0418 561.0192 663.5195 563.09016 662.8189 565.0544 C 663.2285 564.852 663.6252 564.6426 664.01884 564.42426 C 664.4115 564.2009 664.8012 563.9686 665.1749 563.7283 C 665.55065 563.481 665.90245 563.22876 666.2323 562.9825 C 666.326 562.9137 666.40575 562.8389 666.4974 562.7711 C 666.3689 562.457 666.2373 562.14094 666.0878 561.8199 C 665.9144 561.437 665.7231 561.0731 665.52075 560.70315 C 665.3105 560.32227 665.0862 559.94836 664.856 559.57246 C 664.7015 559.3282 664.5301 559.0839 664.3647 558.8426 Z M 659.5281 546.18564 C 659.50415 546.1757 659.4772 546.1757 659.4483 546.1637 C 658.6301 545.9972 657.5059 546.3123 656.4116 547.0631 L 656.4116 547.0591 C 655.81565 547.4978 655.2486 548.0163 654.6984 548.5996 C 654.9476 548.71524 655.1918 548.8219 655.4429 548.95254 C 655.8625 549.15994 656.28606 549.39325 656.70364 549.6405 C 657.1222 549.8878 657.5348 550.15004 657.93746 550.42125 C 658.35006 550.69843 658.7507 550.9846 659.1444 551.27774 C 659.542 551.58484 659.9297 551.8959 660.3124 552.22 C 660.6891 552.53705 661.0619 552.8681 661.4236 553.2081 C 661.7834 553.5501 662.1352 553.8981 662.47906 554.24605 C 662.491 554.26 662.496 554.27 662.51195 554.28593 C 662.494 551.82215 662.1352 549.7522 661.41766 548.13195 C 660.9323 547.085 660.2576 546.396 659.5281 546.18564 Z M 655.5924 545.84364 C 655.64024 545.80576 655.6931 545.7888 655.7419 545.7569 C 653.63405 545.7898 651.58 546.3033 649.6974 547.2366 C 650.0113 547.2525 650.32626 547.27346 650.6571 547.3293 C 651.00994 547.37915 651.3867 547.4539 651.77236 547.5437 C 652.16004 547.6404 652.5547 547.75804 652.95435 547.89165 C 653.053 547.92057 653.1517 547.9674 653.24835 548.0033 C 653.98386 547.1558 654.7612 546.4349 655.5904 545.84165 L 655.5924 545.84364 Z M 668.7907 565.9418 L 668.7907 565.9418 C 668.8006 566.0485 668.79664 566.1482 668.8026 566.2559 C 669.6119 564.5898 670.08926 562.78805 670.2148 560.9524 C 670.0683 561.1648 669.9278 561.3802 669.7564 561.59155 C 669.5401 561.8757 669.285 562.1609 669.0149 562.453 C 668.7528 562.72124 668.4757 562.9835 668.1937 563.2407 C 668.23255 563.3594 668.2814 563.479 668.3183 563.5997 C 668.4349 563.9995 668.5325 564.39435 668.6143 564.77124 C 668.696 565.18104 668.7528 565.5679 668.7907 565.9418 Z M 671.9061 546.28535 L 671.9061 546.28535 C 670.0972 545.725 669.0837 543.7996 669.6398 541.9949 C 670.2029 540.1782 672.12934 539.1722 673.9342 539.73153 C 675.7451 540.2939 676.75865 542.2123 676.19656 544.02896 C 675.63546 545.8327 673.714 546.8447 671.9061 546.28535 Z M 679.9219 563.36336 L 679.9219 563.36336 C 679.6439 564.26173 678.6811 564.77124 677.7762 564.49206 C 676.87625 564.2139 676.37395 563.2477 676.654 562.3503 C 676.93306 561.445 677.8918 560.93746 678.79275 561.21366 C 679.6977 561.4958 680.204 562.458 679.9219 563.36336 Z M 661.4745 539.35364 L 661.4745 539.35364 C 660.56654 539.0705 660.06325 538.1073 660.3433 537.2069 C 660.6194 536.30756 661.5841 535.79605 662.492 536.0772 C 663.39794 536.3574 663.89925 537.3256 663.6232 538.22395 C 663.3441 539.1253 662.3834 539.6338 661.4745 539.35364 Z M 637.8077 569.1006 L 637.8077 569.1006 C 638.7037 569.37776 639.2149 570.34293 638.9309 571.25726 C 638.6538 572.1586 637.6921 572.6532 636.79115 572.377 C 635.8892 572.0958 635.37594 571.1416 635.656 570.23924 C 635.93505 569.3289 636.9038 568.8214 637.8077 569.1006 Z M 667.70136 577.06626 L 667.70136 577.06626 C 668.8734 577.4292 669.53016 578.6855 669.1704 579.8541 C 668.8056 581.02866 667.55386 581.6887 666.3838 581.3278 C 665.2078 580.96285 664.552 579.7115 664.9158 578.53595 C 665.2776 577.3674 666.5283 576.7013 667.70136 577.06626 Z M 645.2485 543.41376 L 645.2485 543.41376 C 644.802 544.8585 643.2602 545.67115 641.8101 545.22147 C 640.367 544.7738 639.5558 543.2313 640.00525 541.7865 C 640.4527 540.33776 641.9925 539.5321 643.4346 539.9778 C 644.8827 540.4305 645.69695 541.965 645.2485 543.41376 Z M 651.06675 578.63965 L 651.06675 578.63965 C 652.51185 579.08634 653.3141 580.61786 652.86366 582.0676 C 652.4162 583.5104 650.8864 584.323 649.44325 583.8783 C 647.9952 583.4286 647.1929 581.88814 647.6384 580.44935 C 648.08785 578.9976 649.6167 578.189 651.06675 578.63965 Z M 634.66934 552.12326 L 634.66934 552.12326 C 635.7527 552.4583 636.3606 553.6119 636.02275 554.7037 C 635.6879 555.78156 634.5358 556.3888 633.4515 556.05376 C 632.36615 555.71774 631.7582 554.5621 632.0911 553.4833 C 632.4299 552.3935 633.583 551.78625 634.66934 552.12326 Z M 652.9195 561.69624 L 652.9195 561.69624 C 651.9747 561.69624 651.2023 560.9325 651.2023 559.98924 C 651.2023 559.043 651.9727 558.2693 652.9195 558.2663 C 653.8653 558.2693 654.63266 559.039 654.63266 559.98525 C 654.63266 560.9325 653.8653 561.69624 652.9195 561.69624 Z" fill="#8ba5af"/>
        </g>
      </g>
    </g>
  </g>
</svg>
