<?xml version="1.0" encoding="UTF-8" standalone="no"?>
<!DOCTYPE svg PUBLIC "-//W3C//DTD SVG 1.1//EN" "http://www.w3.org/Graphics/SVG/1.1/DTD/svg11.dtd">
<svg xmlns:xl="http://www.w3.org/1999/xlink" xmlns="http://www.w3.org/2000/svg" version="1.1" xmlns:dc="http://purl.org/dc/elements/1.1/" viewBox="304 448 64 64" width="64" height="64">
  <defs/>
  <g id="Canvas_1" stroke-dasharray="none" stroke="none" stroke-opacity="1" fill-opacity="1" fill="none">
    <title>Canvas 1</title>
    <g id="Canvas_1_Layer_1">
      <title>Layer 1</title>
      <g id="Group_289">
        <g id="Graphic_273">
          <path d="M 312 448 L 360 448 C 364.41828 448 368 451.5817 368 456 L 368 504 C 368 508.4183 364.41828 512 360 512 L 312 512 C 307.58172 512 304 508.4183 304 504 L 304 456 C 304 451.5817 307.58172 448 312 448 Z" fill="white"/>
        </g>
        <g id="Graphic_163">
          <title>quanta-unread</title>
          <path d="M 336 463.15166 L 336 463.15166 C 335.07042 463.15166 334.39437 462.4756 334.39437 461.54603 C 334.39437 460.61645 335.15493 459.9404 336 459.9404 C 336.92958 459.9404 337.60563 460.70096 337.60563 461.54603 C 337.60563 462.4756 336.84507 463.15166 336 463.15166 Z M 336 495.0108 L 336 495.0108 C 336.84507 495.0108 337.60563 495.7714 337.60563 496.61645 C 337.60563 497.546 336.84507 498.2221 336 498.2221 C 335.07042 498.2221 334.39437 497.4615 334.39437 496.61645 C 334.39437 495.6869 335.15493 495.0108 336 495.0108 Z M 351.97183 486.4756 L 351.97183 486.4756 C 352.30986 486.6446 352.5634 487.06715 352.8169 487.5742 C 352.9014 487.99673 352.9014 488.41927 352.6479 488.7573 C 352.47887 489.17983 352.14084 489.43335 351.7183 489.51786 C 351.5493 489.60237 351.4648 489.60237 351.29577 489.60237 C 351.04225 489.60237 350.78873 489.51786 350.5352 489.34884 C 350.11268 489.17983 349.85915 488.8418 349.77465 488.41927 C 349.69014 488.08124 349.69014 487.8277 349.77465 487.5742 L 346.9014 485.88406 C 346.47887 486.3911 345.8028 486.6446 345.21127 486.6446 C 344.87324 486.6446 344.4507 486.4756 344.11268 486.3066 C 343.85915 486.1376 343.69014 485.96856 343.52113 485.79955 L 338.1972 488.8418 C 338.2817 489.0953 338.3662 489.34884 338.3662 489.60237 C 338.3662 490.78546 337.3521 491.79955 336.169 491.79955 C 334.9859 491.79955 333.97183 490.87 333.97183 489.60237 C 333.97183 489.34884 334.05634 489.0953 334.14084 488.8418 L 328.8169 485.79955 C 328.6479 486.05307 328.47887 486.2221 328.22535 486.3066 C 327.88732 486.5601 327.5493 486.6446 327.12676 486.6446 C 326.95775 486.6446 326.70423 486.6446 326.5352 486.5601 C 325.94366 486.3911 325.52113 486.05307 325.1831 485.546 C 324.84507 485.039 324.76056 484.44744 324.92958 483.8559 C 325.0986 483.26434 325.4366 482.8418 325.94366 482.5038 C 326.11268 482.33476 326.3662 482.33476 326.6197 482.25025 L 326.6197 476.08124 C 326.3662 475.99673 326.1972 475.9122 325.94366 475.8277 C 324.84507 475.23617 324.50704 473.88406 325.0986 472.78546 C 325.4366 472.2784 325.85915 471.9404 326.4507 471.7714 C 327.04225 471.6869 327.6338 471.6869 328.14085 472.0249 C 328.39437 472.1939 328.56338 472.36293 328.7324 472.53194 L 334.05634 469.4897 C 333.97183 469.23617 333.88732 468.98265 333.88732 468.7291 C 333.88732 467.54603 334.9014 466.53194 336.0845 466.53194 C 337.2676 466.53194 338.2817 467.54603 338.2817 468.7291 C 338.2817 469.9122 337.3521 470.9263 336.0845 470.9263 C 335.40845 470.9263 334.8169 470.6728 334.39437 470.16575 L 329.07042 473.208 C 329.15493 473.2925 329.15493 473.2925 329.15493 473.377 C 329.23944 473.96856 329.23944 474.5601 328.9014 475.06715 C 328.56338 475.5742 328.14085 475.9122 327.5493 476.08124 C 327.4648 476.08124 327.4648 476.08124 327.3803 476.08124 L 327.3803 482.25025 C 327.4648 482.25025 327.4648 482.25025 327.5493 482.25025 C 328.14085 482.41927 328.56338 482.7573 328.9014 483.26434 C 329.23944 483.7714 329.32394 484.36293 329.15493 484.9545 C 329.07042 485.039 329.07042 485.039 329.07042 485.1235 L 334.39437 488.16575 C 334.8169 487.7432 335.40845 487.4052 336.0845 487.4052 C 336.76056 487.4052 337.3521 487.6587 337.77465 488.16575 L 343.0986 485.1235 C 343.0141 485.039 343.0141 485.039 343.0141 484.9545 C 342.92958 484.36293 342.92958 483.7714 343.2676 483.26434 C 343.85915 482.16575 345.21127 481.8277 346.30986 482.41927 C 346.8169 482.7573 347.15493 483.17983 347.32394 483.7714 C 347.40845 484.1939 347.40845 484.61645 347.23944 485.039 L 350.11268 486.7291 C 350.2817 486.5601 350.5352 486.3911 350.78873 486.3066 C 351.21127 486.2221 351.6338 486.2221 351.97183 486.4756 Z M 320.02817 471.6869 L 320.02817 471.6869 C 319.60563 471.51786 319.3521 471.17983 319.1831 470.6728 C 319.0986 470.25025 319.0986 469.8277 319.3521 469.4897 C 319.77465 468.7291 320.78873 468.4756 321.5493 468.89814 C 322.30986 469.3207 322.56338 470.33476 322.14085 471.0953 C 321.97183 471.51786 321.6338 471.7714 321.21127 471.8559 C 321.04225 471.9404 320.95775 471.9404 320.78873 471.9404 C 320.5352 471.9404 320.2817 471.8559 320.02817 471.6869 Z M 325.2676 460.53194 L 325.2676 460.53194 C 324.67606 460.86997 323.9155 460.61645 323.57746 460.1094 C 323.23944 459.51786 323.40845 458.7573 324 458.41927 C 324.59155 458.08124 325.3521 458.25025 325.69014 458.8418 C 326.02817 459.43335 325.85915 460.1939 325.2676 460.53194 Z M 346.7324 497.71504 L 346.7324 497.71504 C 347.32394 497.377 348.0845 497.546 348.42253 498.1376 C 348.76056 498.7291 348.59155 499.4897 348 499.8277 C 347.40845 500.16575 346.6479 499.99673 346.30986 499.4052 C 345.97183 498.81363 346.14084 498.05307 346.7324 497.71504 Z M 325.2676 497.71504 L 325.2676 497.71504 C 325.85915 498.05307 326.02817 498.81363 325.69014 499.4052 C 325.3521 499.99673 324.59155 500.16575 324 499.8277 C 323.40845 499.4897 323.23944 498.7291 323.57746 498.1376 C 323.9155 497.546 324.67606 497.377 325.2676 497.71504 Z M 346.7324 460.53194 L 346.7324 460.53194 C 346.14084 460.1094 345.88732 459.34885 346.30986 458.8418 C 346.6479 458.25025 347.40845 458.08124 348 458.41927 C 348.59155 458.7573 348.76056 459.51786 348.42253 460.1094 C 348.0845 460.70096 347.32394 460.86997 346.7324 460.53194 Z M 358.7324 477.8559 L 358.7324 477.8559 C 359.40845 477.8559 359.9155 478.44744 360 479.1235 C 360 479.79955 359.40845 480.3911 358.7324 480.3911 C 358.05634 480.3911 357.4648 479.79955 357.4648 479.1235 C 357.4648 478.44744 358.05634 477.8559 358.7324 477.8559 Z M 313.2676 477.8559 L 313.2676 477.8559 C 313.94366 477.8559 314.4507 478.44744 314.5352 479.1235 C 314.5352 479.79955 313.94366 480.3911 313.2676 480.3911 C 312.59155 480.3911 312 479.79955 312 479.1235 C 312 478.44744 312.59155 477.8559 313.2676 477.8559 Z M 345.04225 476.08124 L 345.04225 476.08124 C 344.2817 476.08124 343.52113 475.6587 343.1831 474.89814 C 342.84507 474.3911 342.76056 473.79955 342.92958 473.208 C 343.0986 472.61645 343.4366 472.1939 343.94366 471.8559 C 345.04225 471.26434 346.39437 471.60237 346.9859 472.70096 C 347.57746 473.79955 347.23944 475.15166 346.14084 475.7432 C 345.8028 475.99673 345.3803 476.08124 345.04225 476.08124 Z M 320.78873 448 L 312 448 C 307.58172 448 304 451.5817 304 456 L 304 504 C 304 508.4183 307.58172 512 312 512 L 320.78873 512 Z M 320.78873 512 L 351.12676 512 L 360 512 C 364.41828 512 368 508.4183 368 504 L 368 456 C 368 451.5817 364.41828 448 360 448 L 351.12676 448 L 320.78873 448 Z M 320.78873 489.34884 C 320.2817 489.34884 319.77465 489.0953 319.43662 488.5883 C 319.1831 488.25025 319.1831 487.8277 319.2676 487.4052 C 319.43662 487.06715 319.69014 486.7291 320.02817 486.4756 C 320.3662 486.2221 320.78873 486.2221 321.21127 486.3066 C 321.6338 486.3911 321.97183 486.6446 322.14085 486.98265 C 322.39437 487.3207 322.39437 487.7432 322.30986 488.16575 C 322.22535 488.5038 321.88732 488.8418 321.5493 489.0953 C 321.29577 489.26434 321.04225 489.34884 320.78873 489.34884 Z M 351.12676 472.0249 C 350.95775 472.0249 350.87324 471.9404 350.70423 471.9404 C 350.3662 471.7714 350.02817 471.51786 349.77465 471.17983 C 349.3521 470.41927 349.60563 469.4052 350.3662 468.98265 C 350.70423 468.7291 351.12676 468.7291 351.5493 468.81363 C 351.97183 468.89814 352.30986 469.15166 352.47887 469.6587 C 352.7324 469.99673 352.7324 470.41927 352.6479 470.8418 C 352.5634 471.17983 352.22535 471.51786 351.88732 471.7714 C 351.6338 471.9404 351.3803 472.0249 351.12676 472.0249 Z" fill="#ff8600"/>
        </g>
      </g>
    </g>
  </g>
</svg>
