<?xml version="1.0" encoding="UTF-8" standalone="no"?>
<!DOCTYPE svg PUBLIC "-//W3C//DTD SVG 1.1//EN" "http://www.w3.org/Graphics/SVG/1.1/DTD/svg11.dtd">
<svg xmlns="http://www.w3.org/2000/svg" xmlns:xl="http://www.w3.org/1999/xlink" xmlns:dc="http://purl.org/dc/elements/1.1/" version="1.1" viewBox="304 528 64 64" width="64" height="64">
  <defs/>
  <g id="Canvas_1" stroke-dasharray="none" fill-opacity="1" stroke-opacity="1" stroke="none" fill="none">
    <title>Canvas 1</title>
    <g id="Canvas_1_Layer_1">
      <title>Layer 1</title>
      <g id="Group_335">
        <g id="Graphic_271">
          <path d="M 312 528 L 360 528 C 364.41828 528 368 531.5817 368 536 L 368 584 C 368 588.4183 364.41828 592 360 592 L 312 592 C 307.58172 592 304 588.4183 304 584 L 304 536 C 304 531.5817 307.58172 528 312 528 Z" fill="white"/>
        </g>
        <g id="Graphic_164">
          <title>quanta-read</title>
          <path d="M 336 543.15166 L 336 543.15166 C 335.07042 543.15166 334.39437 542.4756 334.39437 541.546 C 334.39437 540.61645 335.15493 539.9404 336 539.9404 C 336.92958 539.9404 337.60563 540.70096 337.60563 541.546 C 337.60563 542.4756 336.84507 543.15166 336 543.15166 Z M 336 575.0108 L 336 575.0108 C 336.84507 575.0108 337.60563 575.7714 337.60563 576.61645 C 337.60563 577.546 336.84507 578.2221 336 578.2221 C 335.07042 578.2221 334.39437 577.4615 334.39437 576.61645 C 334.39437 575.6869 335.15493 575.0108 336 575.0108 Z M 351.97183 566.4756 L 351.97183 566.4756 C 352.30986 566.6446 352.5634 567.06715 352.8169 567.5742 C 352.9014 567.9967 352.9014 568.4193 352.6479 568.7573 C 352.47887 569.1798 352.14084 569.43335 351.7183 569.51786 C 351.5493 569.60237 351.4648 569.60237 351.29577 569.60237 C 351.04225 569.60237 350.78873 569.51786 350.5352 569.34884 C 350.11268 569.1798 349.85915 568.8418 349.77465 568.4193 C 349.69014 568.08124 349.69014 567.8277 349.77465 567.5742 L 346.9014 565.88406 C 346.47887 566.3911 345.8028 566.6446 345.21127 566.6446 C 344.87324 566.6446 344.4507 566.4756 344.11268 566.3066 C 343.85915 566.1376 343.69014 565.96856 343.52113 565.79955 L 338.1972 568.8418 C 338.2817 569.0953 338.3662 569.34884 338.3662 569.60237 C 338.3662 570.78546 337.3521 571.79955 336.169 571.79955 C 334.9859 571.79955 333.97183 570.87 333.97183 569.60237 C 333.97183 569.34884 334.05634 569.0953 334.14084 568.8418 L 328.8169 565.79955 C 328.6479 566.0531 328.47887 566.2221 328.22535 566.3066 C 327.88732 566.5601 327.5493 566.6446 327.12676 566.6446 C 326.95775 566.6446 326.70423 566.6446 326.5352 566.5601 C 325.94366 566.3911 325.52113 566.0531 325.1831 565.546 C 324.84507 565.039 324.76056 564.44744 324.92958 563.8559 C 325.0986 563.26434 325.4366 562.8418 325.94366 562.5038 C 326.11268 562.33476 326.3662 562.33476 326.6197 562.25025 L 326.6197 556.08124 C 326.3662 555.9967 326.1972 555.9122 325.94366 555.8277 C 324.84507 555.2362 324.50704 553.88406 325.0986 552.78546 C 325.4366 552.2784 325.85915 551.9404 326.4507 551.7714 C 327.04225 551.6869 327.6338 551.6869 328.14085 552.0249 C 328.39437 552.1939 328.56338 552.3629 328.7324 552.53194 L 334.05634 549.4897 C 333.97183 549.2362 333.88732 548.98265 333.88732 548.7291 C 333.88732 547.546 334.9014 546.53194 336.0845 546.53194 C 337.2676 546.53194 338.2817 547.546 338.2817 548.7291 C 338.2817 549.9122 337.3521 550.9263 336.0845 550.9263 C 335.40845 550.9263 334.8169 550.6728 334.39437 550.16575 L 329.07042 553.208 C 329.15493 553.2925 329.15493 553.2925 329.15493 553.377 C 329.23944 553.96856 329.23944 554.5601 328.9014 555.06715 C 328.56338 555.5742 328.14085 555.9122 327.5493 556.08124 C 327.4648 556.08124 327.4648 556.08124 327.3803 556.08124 L 327.3803 562.25025 C 327.4648 562.25025 327.4648 562.25025 327.5493 562.25025 C 328.14085 562.4193 328.56338 562.7573 328.9014 563.26434 C 329.23944 563.7714 329.32394 564.3629 329.15493 564.9545 C 329.07042 565.039 329.07042 565.039 329.07042 565.1235 L 334.39437 568.16575 C 334.8169 567.7432 335.40845 567.4052 336.0845 567.4052 C 336.76056 567.4052 337.3521 567.6587 337.77465 568.16575 L 343.0986 565.1235 C 343.0141 565.039 343.0141 565.039 343.0141 564.9545 C 342.92958 564.3629 342.92958 563.7714 343.2676 563.26434 C 343.85915 562.16575 345.21127 561.8277 346.30986 562.4193 C 346.8169 562.7573 347.15493 563.1798 347.32394 563.7714 C 347.40845 564.1939 347.40845 564.61645 347.23944 565.039 L 350.11268 566.7291 C 350.2817 566.5601 350.5352 566.3911 350.78873 566.3066 C 351.21127 566.2221 351.6338 566.2221 351.97183 566.4756 Z M 320.02817 551.6869 L 320.02817 551.6869 C 319.60563 551.51786 319.3521 551.1798 319.1831 550.6728 C 319.0986 550.25025 319.0986 549.8277 319.3521 549.4897 C 319.77465 548.7291 320.78873 548.4756 321.5493 548.89814 C 322.30986 549.3207 322.56338 550.33476 322.14085 551.0953 C 321.97183 551.51786 321.6338 551.7714 321.21127 551.8559 C 321.04225 551.9404 320.95775 551.9404 320.78873 551.9404 C 320.5352 551.9404 320.2817 551.8559 320.02817 551.6869 Z M 325.2676 540.53194 L 325.2676 540.53194 C 324.67606 540.87 323.9155 540.61645 323.57746 540.1094 C 323.23944 539.51786 323.40845 538.7573 324 538.41927 C 324.59155 538.08124 325.3521 538.25025 325.69014 538.8418 C 326.02817 539.43335 325.85915 540.1939 325.2676 540.53194 Z M 346.7324 577.71504 L 346.7324 577.71504 C 347.32394 577.377 348.0845 577.546 348.42253 578.1376 C 348.76056 578.7291 348.59155 579.4897 348 579.8277 C 347.40845 580.16575 346.6479 579.9967 346.30986 579.4052 C 345.97183 578.8136 346.14084 578.0531 346.7324 577.71504 Z M 325.2676 577.71504 L 325.2676 577.71504 C 325.85915 578.0531 326.02817 578.8136 325.69014 579.4052 C 325.3521 579.9967 324.59155 580.16575 324 579.8277 C 323.40845 579.4897 323.23944 578.7291 323.57746 578.1376 C 323.9155 577.546 324.67606 577.377 325.2676 577.71504 Z M 346.7324 540.53194 L 346.7324 540.53194 C 346.14084 540.1094 345.88732 539.34885 346.30986 538.8418 C 346.6479 538.25025 347.40845 538.08124 348 538.41927 C 348.59155 538.7573 348.76056 539.51786 348.42253 540.1094 C 348.0845 540.70096 347.32394 540.87 346.7324 540.53194 Z M 358.7324 557.8559 L 358.7324 557.8559 C 359.40845 557.8559 359.9155 558.44744 360 559.1235 C 360 559.79955 359.40845 560.3911 358.7324 560.3911 C 358.05634 560.3911 357.4648 559.79955 357.4648 559.1235 C 357.4648 558.44744 358.05634 557.8559 358.7324 557.8559 Z M 313.2676 557.8559 L 313.2676 557.8559 C 313.94366 557.8559 314.4507 558.44744 314.5352 559.1235 C 314.5352 559.79955 313.94366 560.3911 313.2676 560.3911 C 312.59155 560.3911 312 559.79955 312 559.1235 C 312 558.44744 312.59155 557.8559 313.2676 557.8559 Z M 345.04225 556.08124 L 345.04225 556.08124 C 344.2817 556.08124 343.52113 555.6587 343.1831 554.89814 C 342.84507 554.3911 342.76056 553.79955 342.92958 553.208 C 343.0986 552.61645 343.4366 552.1939 343.94366 551.8559 C 345.04225 551.26434 346.39437 551.60237 346.9859 552.70096 C 347.57746 553.79955 347.23944 555.15166 346.14084 555.7432 C 345.8028 555.9967 345.3803 556.08124 345.04225 556.08124 Z M 320.78873 528 L 312 528 C 307.58172 528 304 531.5817 304 536 L 304 584 C 304 588.4183 307.58172 592 312 592 L 320.78873 592 Z M 320.78873 592 L 351.12676 592 L 360 592 C 364.41828 592 368 588.4183 368 584 L 368 536 C 368 531.5817 364.41828 528 360 528 L 351.12676 528 L 320.78873 528 Z M 320.78873 569.34884 C 320.2817 569.34884 319.77465 569.0953 319.43662 568.5883 C 319.1831 568.25025 319.1831 567.8277 319.2676 567.4052 C 319.43662 567.06715 319.69014 566.7291 320.02817 566.4756 C 320.3662 566.2221 320.78873 566.2221 321.21127 566.3066 C 321.6338 566.3911 321.97183 566.6446 322.14085 566.98265 C 322.39437 567.3207 322.39437 567.7432 322.30986 568.16575 C 322.22535 568.5038 321.88732 568.8418 321.5493 569.0953 C 321.29577 569.26434 321.04225 569.34884 320.78873 569.34884 Z M 351.12676 552.0249 C 350.95775 552.0249 350.87324 551.9404 350.70423 551.9404 C 350.3662 551.7714 350.02817 551.51786 349.77465 551.1798 C 349.3521 550.41927 349.60563 549.4052 350.3662 548.98265 C 350.70423 548.7291 351.12676 548.7291 351.5493 548.81363 C 351.97183 548.89814 352.30986 549.15166 352.47887 549.6587 C 352.7324 549.9967 352.7324 550.41927 352.6479 550.8418 C 352.5634 551.1798 352.22535 551.51786 351.88732 551.7714 C 351.6338 551.9404 351.3803 552.0249 351.12676 552.0249 Z" fill="#8ca5af"/>
        </g>
      </g>
    </g>
  </g>
</svg>
