<?xml version="1.0" encoding="UTF-8" standalone="no"?>
<!DOCTYPE svg PUBLIC "-//W3C//DTD SVG 1.1//EN" "http://www.w3.org/Graphics/SVG/1.1/DTD/svg11.dtd">
<svg xmlns:xl="http://www.w3.org/1999/xlink" xmlns="http://www.w3.org/2000/svg" version="1.1" xmlns:dc="http://purl.org/dc/elements/1.1/" viewBox="464 448 64 64" width="64" height="64">
  <defs/>
  <g id="Canvas_1" stroke-dasharray="none" stroke="none" stroke-opacity="1" fill-opacity="1" fill="none">
    <title>Canvas 1</title>
    <g id="Canvas_1_Layer_1">
      <title>Layer 1</title>
      <g id="Group_305">
        <g id="Graphic_298">
          <path d="M 472 448 L 520 448 C 524.4183 448 528 451.5817 528 456 L 528 504 C 528 508.4183 524.4183 512 520 512 L 472 512 C 467.5817 512 464 508.4183 464 504 L 464 456 C 464 451.5817 467.5817 448 472 448 Z" fill="white"/>
        </g>
        <g id="Graphic_303">
          <path d="M 472 448 L 472 448 C 467.5817 448 464 451.5817 464 456 L 464 504 C 464 508.4183 467.5817 512 472 512 L 520 512 C 524.4183 512 528 508.4183 528 504 L 528 456 C 528 451.5817 524.4183 448 520 448 Z M 519.9992 478.98515 L 519.9992 478.98515 C 520.035 481.0096 518.8974 482.8728 517.0879 483.77754 C 517.12374 484.30605 517.12374 484.83455 517.0879 485.36306 C 517.0879 493.44294 507.6823 500 496.082 500 C 484.48175 500 475.0761 493.434 475.0761 485.36306 C 475.0403 484.83455 475.0403 484.30605 475.0761 483.77754 C 474.5476 483.54464 474.07286 483.2132 473.6608 482.828 C 471.5378 480.8394 471.4393 477.5071 473.4279 475.3931 C 475.4165 473.2701 478.7488 473.1716 480.8628 475.1602 C 485.0192 472.34747 489.9012 470.80674 494.9175 470.7261 L 497.57796 458.2211 C 497.57796 458.21216 497.57796 458.21216 497.57796 458.2032 C 497.7123 457.5941 498.3125 457.21785 498.91267 457.3522 L 507.745 459.1169 C 508.30933 458.13154 509.3305 457.46867 510.46815 457.3522 C 512.4478 457.13723 514.22144 458.57047 514.4364 460.5501 C 514.6514 462.5298 513.2182 464.3034 511.2385 464.5184 C 509.25885 464.7334 507.4852 463.30015 507.27023 461.3205 L 499.5576 459.69914 L 497.21965 470.9411 C 502.1733 471.0486 506.99254 472.58037 511.0952 475.3752 C 512.0268 474.48837 513.254 473.95986 514.5439 473.91507 C 517.4552 473.81654 519.8917 476.08284 519.9992 478.98515 Z M 483.9622 482.5951 L 483.9622 482.5951 C 483.9622 484.58373 485.5746 486.18717 487.57217 486.2051 C 489.5608 486.2051 491.18214 484.58373 491.18214 482.5951 C 491.18214 480.6065 489.5608 478.98515 487.57217 478.98515 C 485.58355 478.98515 483.9622 480.6065 483.9622 482.5951 Z M 504.89643 492.5024 L 504.89643 492.6457 C 505.2906 492.2605 505.29953 491.61556 504.91435 491.2214 C 504.52917 490.8273 503.8842 490.8183 503.49007 491.2035 C 501.2954 492.7711 498.64393 493.5415 495.9566 493.39815 C 493.2693 493.52356 490.62676 492.71736 488.459 491.13184 C 488.0917 490.83624 487.5811 490.83624 487.2228 491.13184 C 486.81076 491.47223 486.74806 492.0903 487.08845 492.5024 C 489.65037 494.4283 492.7856 495.41364 495.99244 495.2793 C 499.1993 495.41364 502.3345 494.4283 504.89643 492.5024 Z M 504.2515 486.3305 L 504.2246 486.46486 C 504.2873 486.46486 504.34105 486.46486 504.40376 486.46486 C 506.3924 486.38424 507.94206 484.70914 507.86144 482.7205 C 507.86144 480.7319 506.2401 479.11056 504.2515 479.11056 C 502.26286 479.11056 500.6415 480.7319 500.6415 482.7205 C 500.6415 484.70914 502.26286 486.3305 504.2515 486.3305 Z" fill="#fd4401"/>
        </g>
      </g>
    </g>
  </g>
</svg>
