<?xml version="1.0" encoding="UTF-8" standalone="no"?>
<!DOCTYPE svg PUBLIC "-//W3C//DTD SVG 1.1//EN" "http://www.w3.org/Graphics/SVG/1.1/DTD/svg11.dtd">
<svg xmlns="http://www.w3.org/2000/svg" xmlns:xl="http://www.w3.org/1999/xlink" xmlns:dc="http://purl.org/dc/elements/1.1/" version="1.1" viewBox="464 528 64 64" width="64" height="64">
  <defs/>
  <g id="Canvas_1" stroke-dasharray="none" fill-opacity="1" stroke-opacity="1" stroke="none" fill="none">
    <title>Canvas 1</title>
    <g id="Canvas_1_Layer_1">
      <title>Layer 1</title>
      <g id="Group_337">
        <g id="Graphic_301">
          <path d="M 472 528 L 520 528 C 524.4183 528 528 531.5817 528 536 L 528 584 C 528 588.4183 524.4183 592 520 592 L 472 592 C 467.5817 592 464 588.4183 464 584 L 464 536 C 464 531.5817 467.5817 528 472 528 Z" fill="white"/>
        </g>
        <g id="Graphic_304">
          <path d="M 472 528 L 472 528 C 467.5817 528 464 531.5817 464 536 L 464 584 C 464 588.4183 467.5817 592 472 592 L 520 592 C 524.4183 592 528 588.4183 528 584 L 528 536 C 528 531.5817 524.4183 528 520 528 Z M 519.9992 558.98515 L 519.9992 558.98515 C 520.035 561.0096 518.8974 562.8728 517.0879 563.77754 C 517.12374 564.30605 517.12374 564.83455 517.0879 565.36306 C 517.0879 573.44294 507.6823 580 496.082 580 C 484.48175 580 475.0761 573.434 475.0761 565.36306 C 475.0403 564.83455 475.0403 564.30605 475.0761 563.77754 C 474.5476 563.54464 474.07286 563.2132 473.6608 562.828 C 471.5378 560.8394 471.4393 557.5071 473.4279 555.3931 C 475.4165 553.2701 478.7488 553.1716 480.8628 555.1602 C 485.0192 552.34747 489.9012 550.80674 494.9175 550.7261 L 497.57796 538.2211 C 497.57796 538.21216 497.57796 538.21216 497.57796 538.2032 C 497.7123 537.5941 498.3125 537.21785 498.91267 537.3522 L 507.745 539.1169 C 508.30933 538.13154 509.3305 537.46867 510.46815 537.3522 C 512.4478 537.1372 514.22144 538.57047 514.4364 540.5501 C 514.6514 542.5298 513.2182 544.3034 511.2385 544.5184 C 509.25885 544.7334 507.4852 543.30015 507.27023 541.3205 L 499.5576 539.69914 L 497.21965 550.9411 C 502.1733 551.0486 506.99254 552.5804 511.0952 555.3752 C 512.0268 554.48837 513.254 553.95986 514.5439 553.9151 C 517.4552 553.81654 519.8917 556.08284 519.9992 558.98515 Z M 483.9622 562.5951 L 483.9622 562.5951 C 483.9622 564.58373 485.5746 566.1872 487.57217 566.2051 C 489.5608 566.2051 491.18214 564.58373 491.18214 562.5951 C 491.18214 560.6065 489.5608 558.98515 487.57217 558.98515 C 485.58355 558.98515 483.9622 560.6065 483.9622 562.5951 Z M 504.89643 572.5024 L 504.89643 572.6457 C 505.2906 572.2605 505.29953 571.61556 504.91435 571.2214 C 504.52917 570.8273 503.8842 570.8183 503.49007 571.2035 C 501.2954 572.7711 498.64393 573.5415 495.9566 573.39815 C 493.2693 573.52356 490.62676 572.71736 488.459 571.13184 C 488.0917 570.83624 487.5811 570.83624 487.2228 571.13184 C 486.81076 571.47223 486.74806 572.0903 487.08845 572.5024 C 489.65037 574.4283 492.7856 575.41364 495.99244 575.2793 C 499.1993 575.41364 502.3345 574.4283 504.89643 572.5024 Z M 504.2515 566.3305 L 504.2246 566.46486 C 504.2873 566.46486 504.34105 566.46486 504.40376 566.46486 C 506.3924 566.38424 507.94206 564.70914 507.86144 562.7205 C 507.86144 560.7319 506.2401 559.11056 504.2515 559.11056 C 502.26286 559.11056 500.6415 560.7319 500.6415 562.7205 C 500.6415 564.70914 502.26286 566.3305 504.2515 566.3305 Z" fill="#8ba5ae"/>
        </g>
      </g>
    </g>
  </g>
</svg>
